<svg width="1920" height="1080" viewBox="0 0 1920 1080" fill="none" xmlns="http://www.w3.org/2000/svg">
<g clip-path="url(#clip0_202_2418)">
<rect width="1920" height="1080" fill="#121939"/>
<path d="M-196.407 577.764C-144.168 598.495 -48.213 616.089 48.506 588.074C145.225 560.058 226.369 540.669 325.783 573.952" stroke="#DADADA" stroke-width="2.5"/>
<path d="M-199.531 632.293C-147.26 652.459 -51.2805 669.634 45.3834 642.579C142.047 615.524 223.153 596.817 322.617 629.212" stroke="#DADADA" stroke-width="2.5"/>
<path d="M-202.72 687.966C-150.448 708.131 -54.469 725.307 42.1949 698.252C138.859 671.197 219.964 652.49 319.429 684.885" stroke="#DADADA" stroke-width="2.5"/>
<path d="M-205.874 743.043C-153.636 763.774 -57.6803 781.368 39.0387 753.352C135.758 725.336 216.902 705.947 316.316 739.231" stroke="#DADADA" stroke-width="2.5"/>
<path d="M1601.59 776.764C1653.83 797.495 1749.79 815.089 1846.51 787.074C1943.22 759.058 2024.37 739.669 2123.78 772.952" stroke="#DADADA" stroke-width="2.5"/>
<path d="M1598.47 831.293C1650.74 851.459 1746.72 868.634 1843.38 841.579C1940.05 814.524 2021.15 795.817 2120.62 828.212" stroke="#DADADA" stroke-width="2.5"/>
<path d="M1595.28 886.966C1647.55 907.131 1743.53 924.307 1840.19 897.252C1936.86 870.197 2017.96 851.49 2117.43 883.885" stroke="#DADADA" stroke-width="2.5"/>
<path d="M1592.13 942.043C1644.36 962.774 1740.32 980.368 1837.04 952.352C1933.76 924.336 2014.9 904.947 2114.32 938.231" stroke="#DADADA" stroke-width="2.5"/>
</g>
<defs>
<clipPath id="clip0_202_2418">
<rect width="1920" height="1080" fill="white"/>
</clipPath>
</defs>
</svg>
