<svg width="1055" height="622" viewBox="0 0 1055 622" fill="none" xmlns="http://www.w3.org/2000/svg">
<path d="M10.5929 416.764C62.8317 437.495 158.787 455.089 255.506 427.074C352.225 399.058 433.369 379.669 532.783 412.952" stroke="#DADADA" stroke-width="2.5"/>
<path d="M7.46919 471.293C59.7404 491.459 155.72 508.634 252.384 481.579C349.048 454.524 430.153 435.817 529.617 468.212" stroke="#DADADA" stroke-width="2.5"/>
<path d="M4.28071 526.966C56.5519 547.131 152.531 564.307 249.195 537.252C345.859 510.197 426.964 491.49 526.429 523.885" stroke="#DADADA" stroke-width="2.5"/>
<path d="M1.12532 582.043C53.3642 602.774 149.32 620.368 246.038 592.352C342.757 564.336 423.902 544.947 523.315 578.231" stroke="#DADADA" stroke-width="2.5"/>
<path d="M531.593 412.764C583.832 433.495 679.787 451.089 776.506 423.074C873.225 395.058 954.369 375.669 1053.78 408.952" stroke="#DADADA" stroke-width="2.5"/>
<path d="M528.469 467.293C580.74 487.459 676.72 504.634 773.384 477.579C870.048 450.524 951.153 431.817 1050.62 464.212" stroke="#DADADA" stroke-width="2.5"/>
<path d="M525.281 522.966C577.552 543.131 673.531 560.307 770.195 533.252C866.859 506.197 947.964 487.49 1047.43 519.885" stroke="#DADADA" stroke-width="2.5"/>
<path d="M522.125 578.043C574.364 598.774 670.32 616.368 767.038 588.352C863.757 560.336 944.902 540.947 1044.32 574.231" stroke="#DADADA" stroke-width="2.5"/>
<path d="M890.888 149.043L896.397 75.6045L912.166 76.7853L917.209 144.049L890.888 149.043Z" fill="#2E3F8A"/>
<path d="M898.252 90.4445L900.958 11.7778H906.6L909.847 89.433L898.252 90.4445Z" fill="#2E3F8A"/>
<path d="M904.048 13.818C907.547 13.818 910.382 10.7248 910.382 6.90901C910.382 3.09327 907.547 0 904.048 0C900.55 0 897.715 3.09327 897.715 6.90901C897.715 10.7248 900.55 13.818 904.048 13.818Z" fill="#2E3F8A"/>
<path d="M919.228 72.4594L921.152 62.4507H885.631L887.675 73.7925L885.752 73.8733L886.387 78.4949L920.386 77.801L921.286 72.3709L919.228 72.4594ZM917.945 72.5141L909.367 72.8773L910.529 63.8098H919.619L917.945 72.5141ZM897.022 73.3994L896.13 63.8098H909.274L908.104 72.9307L897.022 73.3994ZM887.144 63.8098H894.879L895.778 73.4515L888.934 73.7405L887.144 63.8098Z" fill="#2E3F8A"/>
<path d="M914.304 40.1418L915.628 33.2588H891.197L892.603 41.0596L891.281 41.1156L891.717 44.2934L915.1 43.8169L915.72 40.0819L914.304 40.1418ZM913.422 40.1795L907.521 40.4295L908.321 34.1935H914.573L913.422 40.1795ZM899.032 40.7875L898.418 34.1922H907.457L906.653 40.4659L899.032 40.7875ZM892.238 34.1922H897.557L898.175 40.8239L893.468 41.0231L892.238 34.1922Z" fill="#2E3F8A"/>
<path d="M355.729 110.694L356.525 114.049L369.264 110.024V106.093L355.729 110.694Z" fill="#A0B0F8"/>
<path d="M356.525 114.049L379.965 118.745L387.716 115.295L369.264 110.023L356.525 114.049Z" fill="#2E3F8A"/>
<path d="M369.264 106.093L389.355 111.909L387.715 115.295L369.264 110.024V106.093Z" fill="#2E3F8A"/>
<path d="M370.634 112.706L371.157 128L379.238 129.343L379.751 115.704L370.634 112.706Z" fill="#2E3F8A"/>
<path d="M370.634 112.706L362.496 115.246L363.139 125.709L371.157 128L370.634 112.706Z" fill="#A0B0F8"/>
<path d="M326.068 133.302L362.938 122.222L363.675 146.197L329.011 144.595L326.068 133.302Z" fill="#A0B0F8"/>
<path d="M362.938 122.222L398.333 131.145L397.738 151.135L361.922 145.766L362.938 122.222Z" fill="#2E3F8A"/>
<path d="M307.656 160.078L311.175 113.281H319.601L324.174 160.078H307.656Z" fill="#A0B0F8"/>
<path d="M312.194 129.628L313.531 52.1855H316.019L317.356 127.613L312.194 129.628Z" fill="#A0B0F8"/>
<path d="M342.215 157.339L314.535 60.8433L291 147.398L290.278 147.165L314.516 58.0273L342.933 157.094L342.215 157.339Z" fill="#A0B0F8"/>
<path d="M237.604 156.179L240.651 141.766L290.278 114.63L288.645 138.562L237.604 156.179Z" fill="#2E3F8A"/>
<path d="M290.278 114.63L409.835 140.223L405.2 168.902L288.645 138.562L290.278 114.63Z" fill="#2E3F8A"/>
<path d="M252.768 147.653L254.145 169.538L287.267 171.631L282.369 135.583L252.768 147.653Z" fill="#A0B0F8"/>
<path d="M272.503 167.154L271.247 381.648L431.684 371.517L404.917 198.124L272.503 167.154Z" fill="#2E3F8A"/>
<path d="M272.503 167.154L271.247 381.648L188.362 384.322L219.551 191.301L272.503 167.154Z" fill="#A0B0F8"/>
<path d="M232.405 134.88L212.672 198.724L438.262 222.992L431.684 180.3L232.405 134.88Z" fill="#2E3F8A"/>
<path d="M431.684 179.158L232.405 134.88L226.444 149.761L228.085 149.105L432.747 187.2L431.684 179.158Z" fill="#2E3F8A"/>
<path d="M232.405 134.88L153.444 172.766L143.578 222.992L212.672 198.724L232.405 134.88Z" fill="#A0B0F8"/>
<path d="M143.578 222.992L212.672 226.828L272.503 204.674L212.672 198.724L143.578 222.992Z" fill="#2E3F8A"/>
<path d="M282.369 135.583L285.987 193.932L301.897 128.317L282.369 135.583Z" fill="#A0B0F8"/>
<path d="M285.986 193.932L404.879 209.486L416.705 156.565L301.897 128.317L285.986 193.932Z" fill="#2E3F8A"/>
<path d="M339.176 149.532L330.431 187.904L303.768 183.749L311.174 142.198L339.176 149.532ZM379.123 159.991L372.542 196.907L399.206 201.062L406.907 167.267L379.123 159.991ZM346.842 151.539L339.742 191.367L366.405 195.523L374.763 158.85L346.842 151.539Z" fill="#CBE3F8"/>
<path d="M374.763 158.849L360.045 154.996L344.457 164.913L341.437 181.865L374.524 159.904L374.763 158.849Z" fill="#E1F1FF"/>
<path d="M373.617 163.882L340.833 185.251L339.742 191.367L347.469 192.57L370.725 176.57L373.617 163.882Z" fill="#E1F1FF"/>
<path d="M330.431 187.904L334.18 171.453L312.672 185.137L330.431 187.904Z" fill="#E1F1FF"/>
<path d="M367.985 188.598L369.571 181.634L353.07 193.444L359.802 194.493L367.985 188.598Z" fill="#E1F1FF"/>
<path d="M394.272 163.958L376.098 176.964L374.914 183.605L400.076 165.477L394.272 163.958Z" fill="#E1F1FF"/>
<path d="M376.929 172.301L390.493 162.968L379.452 160.078L379.062 160.332L376.929 172.301Z" fill="#E1F1FF"/>
<path d="M304.944 212.284L305.602 230.581L293.433 229.624L295.406 209.662L304.944 212.284ZM347.171 214.676L346.56 231.717H356.682L356.024 216.829L347.171 214.676ZM387.761 217.007V234.049H395.983L394.503 218.512L387.761 217.007Z" fill="#A0B0F8" fill-opacity="0.43"/>
<path d="M153.444 172.766L152.106 179.488L228.085 149.105L232.405 134.88L153.444 172.766Z" fill="#2E3F8A"/>
<path d="M718.475 219.8L805.302 117.805H970.404L1015.13 214.617L718.475 219.8Z" fill="#2E3F8A"/>
<path d="M137 359.318L155.278 439.68H901.625L1025 221.198C1004.68 181.02 1013.5 143.511 979.686 128.317C853.279 137.899 687.431 174.808 551.298 221.557L492.962 278.761C482.351 289.167 468.618 296.273 453.604 299.126L137 359.318Z" fill="#404040"/>
<path d="M578.889 229.841C578.889 229.841 582.343 249.784 574.826 252.332C567.31 254.879 569.138 232.278 569.138 232.278L578.889 229.841ZM411.531 315.951C411.531 315.951 409.703 338.554 417.219 336.005C424.736 333.458 421.282 313.514 421.282 313.514L411.531 315.951ZM277.17 341.435C277.17 341.435 275.577 361.135 282.128 358.914C288.679 356.693 285.669 339.311 285.669 339.311L277.17 341.435ZM173.113 362.474C173.113 362.474 171.944 376.931 176.751 375.301C181.558 373.671 179.349 360.915 179.349 360.915L173.113 362.474ZM697.008 194.362C697.008 194.362 695.18 216.965 702.696 214.416C710.213 211.868 706.759 191.924 706.759 191.924L697.008 194.362ZM840.244 163.322C840.244 163.322 838.416 185.925 845.933 183.376C853.449 180.828 849.995 160.883 849.995 160.883L840.244 163.322Z" fill="#1E1E1E"/>
<path d="M979.686 128.317L901.624 439.68L1025 221.198C1025 180.526 1013.5 143.511 979.686 128.317Z" fill="#1E1E1E"/>
<path d="M957.833 216.942C943.53 207.485 870.593 227.945 760.185 258.915C607.135 301.846 379.575 365.676 145.131 395.067L145.756 397.817C380.259 368.386 607.78 304.567 760.827 261.636C866.658 231.951 943.126 210.503 956.499 219.345C977.217 233.046 991.637 248.365 1001.64 262.563L1003.08 260.018C992.924 245.8 978.441 230.57 957.833 216.942Z" fill="#1E1E1E"/>
<path d="M679.43 346.361C625.56 372.079 573.256 403.686 515.712 416.893C414.182 440.198 308.8 403.741 205.425 413.394C187.332 415.084 168.917 418.406 152.025 425.382L155.277 439.68H901.623L944.164 364.346C918.539 337.187 885.473 318.329 850.269 311.507C792.372 300.289 733.3 320.642 679.43 346.361Z" fill="#1E1E1E"/>
</svg>
