<svg width="2097" height="536" viewBox="0 0 2097 536" fill="none" xmlns="http://www.w3.org/2000/svg">
<path d="M531.593 326.764C583.832 347.495 679.787 365.089 776.506 337.074C873.225 309.058 954.369 289.669 1053.78 322.952" stroke="#DADADA" stroke-width="2.5"/>
<path d="M528.469 381.293C580.74 401.459 676.72 418.634 773.384 391.579C870.048 364.524 951.153 345.817 1050.62 378.212" stroke="#DADADA" stroke-width="2.5"/>
<path d="M525.281 436.966C577.552 457.131 673.531 474.307 770.195 447.252C866.859 420.197 947.964 401.49 1047.43 433.885" stroke="#DADADA" stroke-width="2.5"/>
<path d="M522.125 492.043C574.364 512.774 670.32 530.368 767.039 502.352C863.758 474.336 944.902 454.947 1044.32 488.231" stroke="#DADADA" stroke-width="2.5"/>
<path d="M10.5929 330.764C62.8317 351.495 158.787 369.089 255.506 341.074C352.225 313.058 433.369 293.669 532.783 326.952" stroke="#DADADA" stroke-width="2.5"/>
<path d="M7.46919 385.293C59.7404 405.459 155.72 422.634 252.384 395.579C349.048 368.524 430.153 349.817 529.617 382.212" stroke="#DADADA" stroke-width="2.5"/>
<path d="M4.28059 440.966C56.5518 461.131 152.531 478.307 249.195 451.252C345.859 424.197 426.964 405.49 526.429 437.885" stroke="#DADADA" stroke-width="2.5"/>
<path d="M1.12545 496.043C53.3643 516.774 149.32 534.368 246.039 506.352C342.758 478.336 423.902 458.947 523.315 492.231" stroke="#DADADA" stroke-width="2.5"/>
<path d="M1052.59 322.764C1104.83 343.495 1200.79 361.089 1297.51 333.074C1394.22 305.058 1475.37 285.669 1574.78 318.952" stroke="#DADADA" stroke-width="2.5"/>
<path d="M1049.47 377.293C1101.74 397.459 1197.72 414.634 1294.38 387.579C1391.05 360.524 1472.15 341.817 1571.62 374.212" stroke="#DADADA" stroke-width="2.5"/>
<path d="M1046.28 432.966C1098.55 453.131 1194.53 470.307 1291.2 443.252C1387.86 416.197 1468.96 397.49 1568.43 429.885" stroke="#DADADA" stroke-width="2.5"/>
<path d="M1043.13 488.043C1095.36 508.774 1191.32 526.368 1288.04 498.352C1384.76 470.336 1465.9 450.947 1565.32 484.231" stroke="#DADADA" stroke-width="2.5"/>
<path d="M1313.73 125.881L1318.38 63.8555L1331.7 64.8528L1335.96 121.663L1313.73 125.881Z" fill="#2E3F8A"/>
<path d="M1319.95 76.3891L1322.23 9.94763H1327L1329.74 75.5347L1319.95 76.3891Z" fill="#2E3F8A"/>
<path d="M1324.85 11.6706C1327.8 11.6706 1330.2 9.05807 1330.2 5.83531C1330.2 2.61256 1327.8 0 1324.85 0C1321.89 0 1319.5 2.61256 1319.5 5.83531C1319.5 9.05807 1321.89 11.6706 1324.85 11.6706Z" fill="#2E3F8A"/>
<path d="M1337.67 61.1989L1339.29 52.7456H1309.29L1311.02 62.3249L1309.39 62.3931L1309.93 66.2965L1338.64 65.7104L1339.4 61.1242L1337.67 61.1989ZM1336.58 61.2451L1329.34 61.5519L1330.32 53.8935H1338L1336.58 61.2451ZM1318.91 61.9928L1318.16 53.8935H1329.26L1328.27 61.597L1318.91 61.9928ZM1310.57 53.8935H1317.1L1317.86 62.0368L1312.08 62.2809L1310.57 53.8935Z" fill="#2E3F8A"/>
<path d="M1333.51 33.9033L1334.62 28.09H1313.99L1315.18 34.6785L1314.06 34.7257L1314.43 37.4098L1334.18 37.0073L1334.7 33.8527L1333.51 33.9033ZM1332.76 33.9352L1327.78 34.1463L1328.45 28.8794H1333.73L1332.76 33.9352ZM1320.61 34.4487L1320.09 28.8783H1327.72L1327.04 34.1771L1320.61 34.4487ZM1314.87 28.8783H1319.36L1319.88 34.4795L1315.91 34.6477L1314.87 28.8783Z" fill="#2E3F8A"/>
<path d="M861.739 93.4916L862.411 96.3252L873.171 92.9254V89.6058L861.739 93.4916Z" fill="#A0B0F8"/>
<path d="M862.412 96.3254L882.209 100.291L888.755 97.3776L873.171 92.9255L862.412 96.3254Z" fill="#2E3F8A"/>
<path d="M873.171 89.6058L890.14 94.5175L888.755 97.3775L873.171 92.9254V89.6058Z" fill="#2E3F8A"/>
<path d="M874.328 95.1906L874.769 108.108L881.594 109.243L882.028 97.7228L874.328 95.1906Z" fill="#2E3F8A"/>
<path d="M874.328 95.1906L867.454 97.3358L867.998 106.173L874.769 108.108L874.328 95.1906Z" fill="#A0B0F8"/>
<path d="M836.688 112.586L867.827 103.228L868.45 123.477L839.173 122.124L836.688 112.586Z" fill="#A0B0F8"/>
<path d="M867.827 103.228L897.721 110.764L897.219 127.648L866.969 123.113L867.827 103.228Z" fill="#2E3F8A"/>
<path d="M821.133 135.201L824.106 95.6766H831.222L835.084 135.201H821.133Z" fill="#A0B0F8"/>
<path d="M824.968 109.484L826.097 44.0758H828.198L829.327 107.782L824.968 109.484Z" fill="#A0B0F8"/>
<path d="M850.321 132.888L826.943 51.3878L807.065 124.491L806.456 124.295L826.927 49.0095L850.928 132.681L850.321 132.888Z" fill="#A0B0F8"/>
<path d="M761.969 131.908L764.542 119.735L806.457 96.8156L805.078 117.029L761.969 131.908Z" fill="#2E3F8A"/>
<path d="M806.457 96.8156L907.435 118.432L903.52 142.654L805.078 117.029L806.457 96.8156Z" fill="#2E3F8A"/>
<path d="M774.776 124.707L775.94 143.19L803.914 144.958L799.777 114.513L774.776 124.707Z" fill="#A0B0F8"/>
<path d="M791.445 141.177L790.384 322.338L925.888 313.781L903.281 167.334L791.445 141.177Z" fill="#2E3F8A"/>
<path d="M791.444 141.177L790.384 322.338L720.379 324.596L746.722 161.571L791.444 141.177Z" fill="#A0B0F8"/>
<path d="M757.579 113.919L740.912 167.841L931.445 188.338L925.889 152.28L757.579 113.919Z" fill="#2E3F8A"/>
<path d="M925.888 151.316L757.578 113.919L752.543 126.487L753.929 125.933L926.786 158.108L925.888 151.316Z" fill="#2E3F8A"/>
<path d="M757.578 113.919L690.888 145.917L682.555 188.338L740.912 167.841L757.578 113.919Z" fill="#A0B0F8"/>
<path d="M682.555 188.338L740.912 191.577L791.445 172.866L740.912 167.841L682.555 188.338Z" fill="#2E3F8A"/>
<path d="M799.778 114.513L802.833 163.794L816.271 108.376L799.778 114.513Z" fill="#A0B0F8"/>
<path d="M802.833 163.794L903.249 176.931L913.238 132.234L816.271 108.376L802.833 163.794Z" fill="#2E3F8A"/>
<path d="M847.756 126.294L840.37 158.703L817.85 155.193L824.106 120.1L847.756 126.294ZM881.495 135.127L875.937 166.306L898.457 169.816L904.962 141.273L881.495 135.127ZM854.231 127.989L848.234 161.628L870.754 165.137L877.813 134.164L854.231 127.989Z" fill="#CBE3F8"/>
<path d="M877.813 134.163L865.382 130.908L852.217 139.285L849.666 153.602L877.611 135.054L877.813 134.163Z" fill="#E1F1FF"/>
<path d="M876.844 138.414L849.154 156.462L848.233 161.627L854.759 162.643L874.401 149.13L876.844 138.414Z" fill="#E1F1FF"/>
<path d="M840.37 158.703L843.536 144.808L825.371 156.365L840.37 158.703Z" fill="#E1F1FF"/>
<path d="M872.088 159.288L873.427 153.407L859.49 163.381L865.177 164.267L872.088 159.288Z" fill="#E1F1FF"/>
<path d="M894.289 138.478L878.939 149.463L877.939 155.072L899.191 139.761L894.289 138.478Z" fill="#E1F1FF"/>
<path d="M879.641 145.525L891.098 137.642L881.772 135.201L881.443 135.415L879.641 145.525Z" fill="#E1F1FF"/>
<path d="M818.845 179.294L819.4 194.747L809.123 193.939L810.789 177.079L818.845 179.294ZM854.51 181.314L853.993 195.707H862.542L861.987 183.132L854.51 181.314ZM888.792 183.283V197.676H895.736L894.486 184.554L888.792 183.283Z" fill="#A0B0F8" fill-opacity="0.43"/>
<path d="M690.888 145.917L689.758 151.594L753.929 125.933L757.578 113.919L690.888 145.917Z" fill="#2E3F8A"/>
<path d="M1168.11 185.641L1241.44 99.4972H1380.89L1418.67 181.264L1168.11 185.641Z" fill="#2E3F8A"/>
<path d="M677 303.478L692.438 371.351H1322.8L1427 186.823C1409.84 152.888 1417.29 121.209 1388.73 108.376C1281.97 116.469 1141.89 147.642 1026.91 187.126L977.644 235.44C968.681 244.229 957.083 250.23 944.402 252.641L677 303.478Z" fill="#404040"/>
<path d="M1050.22 194.122C1050.22 194.122 1053.13 210.966 1046.79 213.118C1040.44 215.27 1041.98 196.181 1041.98 196.181L1050.22 194.122ZM908.868 266.851C908.868 266.851 907.324 285.941 913.672 283.789C920.02 281.637 917.103 264.793 917.103 264.793L908.868 266.851ZM795.387 288.375C795.387 288.375 794.041 305.013 799.574 303.137C805.107 301.261 802.565 286.58 802.565 286.58L795.387 288.375ZM707.501 306.143C707.501 306.143 706.513 318.354 710.574 316.977C714.634 315.601 712.768 304.827 712.768 304.827L707.501 306.143ZM1149.98 164.157C1149.98 164.157 1148.44 183.248 1154.78 181.095C1161.13 178.943 1158.22 162.098 1158.22 162.098L1149.98 164.157ZM1270.96 137.941C1270.96 137.941 1269.41 157.031 1275.76 154.878C1282.11 152.726 1279.19 135.881 1279.19 135.881L1270.96 137.941Z" fill="#1E1E1E"/>
<path d="M1388.73 108.376L1322.8 371.351L1427 186.823C1427 152.471 1417.29 121.209 1388.73 108.376Z" fill="#1E1E1E"/>
<path d="M1370.27 183.228C1358.19 175.241 1296.59 192.521 1203.34 218.679C1074.07 254.937 881.877 308.848 683.867 333.672L684.395 335.994C882.454 311.137 1074.62 257.235 1203.88 220.977C1293.26 195.905 1357.85 177.79 1369.14 185.258C1386.64 196.829 1398.82 209.768 1407.27 221.76L1408.49 219.61C1399.91 207.602 1387.68 194.738 1370.27 183.228Z" fill="#1E1E1E"/>
<path d="M1135.13 292.534C1089.64 314.256 1045.46 340.951 996.858 352.106C911.107 371.789 822.101 340.997 734.791 349.15C719.51 350.577 703.957 353.383 689.69 359.275L692.437 371.351H1322.8L1358.73 307.725C1337.08 284.786 1309.16 268.859 1279.42 263.097C1230.52 253.622 1180.63 270.813 1135.13 292.534Z" fill="#1E1E1E"/>
<path d="M1573.59 318.764C1625.83 339.495 1721.79 357.089 1818.51 329.074C1915.22 301.058 1996.37 281.669 2095.78 314.952" stroke="#DADADA" stroke-width="2.5"/>
<path d="M1570.47 373.293C1622.74 393.459 1718.72 410.634 1815.38 383.579C1912.05 356.524 1993.15 337.817 2092.62 370.212" stroke="#DADADA" stroke-width="2.5"/>
<path d="M1567.28 428.966C1619.55 449.131 1715.53 466.307 1812.2 439.252C1908.86 412.197 1989.96 393.49 2089.43 425.885" stroke="#DADADA" stroke-width="2.5"/>
<path d="M1564.13 484.043C1616.36 504.774 1712.32 522.368 1809.04 494.352C1905.76 466.336 1986.9 446.947 2086.32 480.231" stroke="#DADADA" stroke-width="2.5"/>
</svg>
