<svg width="1055" height="622" viewBox="0 0 1055 622" fill="none" xmlns="http://www.w3.org/2000/svg">
<path d="M10.5929 416.764C62.8317 437.495 158.787 455.089 255.506 427.074C352.225 399.058 433.369 379.669 532.783 412.952" stroke="#121939" stroke-width="2.5"/>
<path d="M7.46895 471.293C59.7402 491.459 155.719 508.634 252.383 481.579C349.047 454.524 430.153 435.817 529.617 468.212" stroke="#121939" stroke-width="2.5"/>
<path d="M4.28047 526.966C56.5517 547.131 152.531 564.307 249.195 537.252C345.859 510.197 426.964 491.49 526.429 523.885" stroke="#121939" stroke-width="2.5"/>
<path d="M1.12508 582.043C53.3639 602.774 149.319 620.368 246.038 592.352C342.757 564.336 423.902 544.947 523.315 578.231" stroke="#121939" stroke-width="2.5"/>
<path d="M531.593 412.764C583.832 433.495 679.787 451.089 776.506 423.074C873.225 395.058 954.369 375.669 1053.78 408.952" stroke="#121939" stroke-width="2.5"/>
<path d="M528.469 467.293C580.74 487.459 676.719 504.634 773.383 477.579C870.047 450.524 951.153 431.817 1050.62 464.212" stroke="#121939" stroke-width="2.5"/>
<path d="M525.28 522.966C577.552 543.131 673.531 560.307 770.195 533.252C866.859 506.197 947.964 487.49 1047.43 519.885" stroke="#121939" stroke-width="2.5"/>
<path d="M522.125 578.043C574.364 598.774 670.319 616.368 767.038 588.352C863.757 560.336 944.902 540.947 1044.32 574.231" stroke="#121939" stroke-width="2.5"/>
<path d="M890.888 149.043L896.397 75.6047L912.165 76.7855L917.209 144.049L890.888 149.043Z" fill="#2E3F8A"/>
<path d="M898.252 90.4445L900.958 11.7778H906.6L909.847 89.433L898.252 90.4445Z" fill="#2E3F8A"/>
<path d="M904.049 13.818C907.547 13.818 910.383 10.7248 910.383 6.90901C910.383 3.09327 907.547 0 904.049 0C900.551 0 897.715 3.09327 897.715 6.90901C897.715 10.7248 900.551 13.818 904.049 13.818Z" fill="#2E3F8A"/>
<path d="M919.229 72.4594L921.153 62.4507H885.631L887.675 73.7925L885.753 73.8733L886.387 78.4949L920.386 77.801L921.286 72.3709L919.229 72.4594ZM917.946 72.5141L909.367 72.8773L910.529 63.8098H919.619L917.946 72.5141ZM897.023 73.3994L896.13 63.8098H909.274L908.104 72.9307L897.023 73.3994ZM887.144 63.8098H894.879L895.778 73.4515L888.934 73.7405L887.144 63.8098Z" fill="#2E3F8A"/>
<path d="M914.304 40.1415L915.628 33.2585H891.197L892.603 41.0593L891.281 41.1153L891.718 44.2932L915.1 43.8167L915.72 40.0816L914.304 40.1415ZM913.422 40.1793L907.522 40.4292L908.321 34.1933H914.573L913.422 40.1793ZM899.033 40.7872L898.418 34.192H907.457L906.653 40.4657L899.033 40.7872ZM892.238 34.192H897.557L898.176 40.8237L893.468 41.0229L892.238 34.192Z" fill="#2E3F8A"/>
<path d="M355.729 110.694L356.525 114.049L369.264 110.023V106.093L355.729 110.694Z" fill="#A0B0F8"/>
<path d="M356.524 114.049L379.964 118.745L387.715 115.295L369.264 110.023L356.524 114.049Z" fill="#2E3F8A"/>
<path d="M369.264 106.093L389.355 111.908L387.715 115.295L369.264 110.023V106.093Z" fill="#2E3F8A"/>
<path d="M370.633 112.705L371.156 128L379.237 129.343L379.75 115.704L370.633 112.705Z" fill="#2E3F8A"/>
<path d="M370.633 112.705L362.495 115.245L363.138 125.708L371.156 128L370.633 112.705Z" fill="#A0B0F8"/>
<path d="M326.068 133.302L362.938 122.222L363.675 146.197L329.011 144.594L326.068 133.302Z" fill="#A0B0F8"/>
<path d="M362.938 122.222L398.333 131.145L397.738 151.135L361.922 145.766L362.938 122.222Z" fill="#2E3F8A"/>
<path d="M307.654 160.078L311.174 113.281H319.6L324.172 160.078H307.654Z" fill="#A0B0F8"/>
<path d="M312.193 129.628L313.53 52.1853H316.018L317.355 127.613L312.193 129.628Z" fill="#A0B0F8"/>
<path d="M342.213 157.339L314.534 60.8428L290.998 147.397L290.276 147.164L314.515 58.0269L342.932 157.094L342.213 157.339Z" fill="#A0B0F8"/>
<path d="M237.604 156.179L240.65 141.766L290.277 114.63L288.644 138.562L237.604 156.179Z" fill="#2E3F8A"/>
<path d="M290.277 114.63L409.835 140.223L405.199 168.902L288.645 138.562L290.277 114.63Z" fill="#2E3F8A"/>
<path d="M252.768 147.653L254.145 169.537L287.266 171.63L282.368 135.583L252.768 147.653Z" fill="#A0B0F8"/>
<path d="M272.503 167.153L271.247 381.648L431.684 371.517L404.916 198.123L272.503 167.153Z" fill="#2E3F8A"/>
<path d="M272.502 167.153L271.247 381.648L188.361 384.322L219.551 191.3L272.502 167.153Z" fill="#A0B0F8"/>
<path d="M232.405 134.88L212.672 198.724L438.262 222.992L431.684 180.3L232.405 134.88Z" fill="#2E3F8A"/>
<path d="M431.684 179.158L232.405 134.88L226.443 149.76L228.084 149.104L432.747 187.2L431.684 179.158Z" fill="#2E3F8A"/>
<path d="M232.405 134.88L153.444 172.766L143.577 222.992L212.672 198.724L232.405 134.88Z" fill="#A0B0F8"/>
<path d="M143.577 222.992L212.672 226.827L272.502 204.673L212.672 198.724L143.577 222.992Z" fill="#2E3F8A"/>
<path d="M282.369 135.583L285.987 193.932L301.897 128.317L282.369 135.583Z" fill="#A0B0F8"/>
<path d="M285.986 193.932L404.879 209.486L416.705 156.565L301.897 128.317L285.986 193.932Z" fill="#2E3F8A"/>
<path d="M339.175 149.531L330.43 187.904L303.767 183.748L311.173 142.198L339.175 149.531ZM379.122 159.991L372.541 196.906L399.205 201.062L406.906 167.267L379.122 159.991ZM346.841 151.539L339.741 191.367L366.404 195.523L374.762 158.85L346.841 151.539Z" fill="#CBE3F8"/>
<path d="M374.762 158.849L360.044 154.995L344.456 164.913L341.436 181.865L374.523 159.903L374.762 158.849Z" fill="#E1F1FF"/>
<path d="M373.615 163.882L340.831 185.251L339.74 191.367L347.467 192.57L370.723 176.57L373.615 163.882Z" fill="#E1F1FF"/>
<path d="M330.43 187.904L334.179 171.452L312.671 185.136L330.43 187.904Z" fill="#E1F1FF"/>
<path d="M367.983 188.598L369.57 181.634L353.068 193.443L359.801 194.493L367.983 188.598Z" fill="#E1F1FF"/>
<path d="M394.27 163.958L376.096 176.964L374.912 183.605L400.074 165.477L394.27 163.958Z" fill="#E1F1FF"/>
<path d="M376.928 172.301L390.492 162.968L379.451 160.078L379.06 160.332L376.928 172.301Z" fill="#E1F1FF"/>
<path d="M304.944 212.284L305.601 230.58L293.433 229.623L295.405 209.662L304.944 212.284ZM347.171 214.675L346.559 231.717H356.681L356.024 216.829L347.171 214.675ZM387.761 217.007V234.048H395.983L394.503 218.512L387.761 217.007Z" fill="#A0B0F8" fill-opacity="0.43"/>
<path d="M153.443 172.766L152.105 179.487L228.084 149.104L232.404 134.88L153.443 172.766Z" fill="#2E3F8A"/>
<path d="M718.475 219.8L805.302 117.805H970.404L1015.13 214.617L718.475 219.8Z" fill="#2E3F8A"/>
<path d="M137 359.318L155.278 439.68H901.625L1025 221.198C1004.68 181.02 1013.5 143.511 979.686 128.317C853.279 137.899 687.431 174.808 551.298 221.557L492.962 278.761C482.351 289.167 468.618 296.273 453.604 299.126L137 359.318Z" fill="#404040"/>
<path d="M578.889 229.841C578.889 229.841 582.343 249.784 574.827 252.332C567.31 254.879 569.138 232.278 569.138 232.278L578.889 229.841ZM411.531 315.951C411.531 315.951 409.703 338.554 417.22 336.005C424.736 333.458 421.282 313.514 421.282 313.514L411.531 315.951ZM277.17 341.435C277.17 341.435 275.577 361.135 282.128 358.914C288.679 356.693 285.669 339.311 285.669 339.311L277.17 341.435ZM173.114 362.474C173.114 362.474 171.944 376.931 176.751 375.301C181.559 373.671 179.35 360.915 179.35 360.915L173.114 362.474ZM697.009 194.362C697.009 194.362 695.18 216.965 702.697 214.416C710.213 211.868 706.759 191.924 706.759 191.924L697.009 194.362ZM840.245 163.322C840.245 163.322 838.416 185.925 845.933 183.376C853.449 180.828 849.995 160.883 849.995 160.883L840.245 163.322Z" fill="#1E1E1E"/>
<path d="M979.685 128.317L901.623 439.68L1025 221.198C1025 180.526 1013.5 143.511 979.685 128.317Z" fill="#1E1E1E"/>
<path d="M957.833 216.942C943.53 207.485 870.592 227.946 760.184 258.916C607.135 301.846 379.574 365.677 145.131 395.068L145.756 397.817C380.258 368.386 607.78 304.567 760.826 261.637C866.658 231.951 943.125 210.503 956.498 219.345C977.217 233.046 991.637 248.365 1001.64 262.564L1003.08 260.018C992.924 245.801 978.441 230.57 957.833 216.942Z" fill="#1E1E1E"/>
<path d="M679.429 346.361C625.56 372.079 573.256 403.686 515.712 416.893C414.182 440.198 308.8 403.74 205.425 413.394C187.331 415.084 168.917 418.406 152.024 425.381L155.277 439.68H901.623L944.164 364.346C918.538 337.186 885.473 318.329 850.269 311.507C792.371 300.289 733.3 320.642 679.429 346.361Z" fill="#1E1E1E"/>
</svg>
