<svg width="1920" height="1080" viewBox="0 0 1920 1080" fill="none" xmlns="http://www.w3.org/2000/svg">
<g clip-path="url(#clip0_84_1666)">
<rect width="1920" height="1080" fill="#F3F3F3"/>
<path d="M-16.4071 473.764C35.8317 494.495 131.787 512.089 228.506 484.074C325.225 456.058 406.369 436.669 505.783 469.952" stroke="#121939" stroke-width="2.5"/>
<path d="M-19.5311 528.293C32.7402 548.459 128.719 565.634 225.383 538.579C322.047 511.524 403.153 492.817 502.617 525.212" stroke="#121939" stroke-width="2.5"/>
<path d="M-22.7195 583.966C29.5517 604.131 125.531 621.307 222.195 594.252C318.859 567.197 399.964 548.49 499.429 580.885" stroke="#121939" stroke-width="2.5"/>
<path d="M-25.8744 639.043C26.3644 659.774 122.32 677.368 219.039 649.352C315.758 621.336 396.902 601.947 496.316 635.231" stroke="#121939" stroke-width="2.5"/>
<path d="M1426.59 473.764C1478.83 494.495 1574.79 512.089 1671.51 484.074C1768.22 456.058 1849.37 436.669 1948.78 469.952" stroke="#121939" stroke-width="2.5"/>
<path d="M1423.47 528.293C1475.74 548.459 1571.72 565.634 1668.38 538.579C1765.05 511.524 1846.15 492.817 1945.62 525.212" stroke="#121939" stroke-width="2.5"/>
<path d="M1420.28 583.966C1472.55 604.131 1568.53 621.307 1665.19 594.252C1761.86 567.197 1842.96 548.49 1942.43 580.885" stroke="#121939" stroke-width="2.5"/>
<path d="M1417.13 639.043C1469.36 659.774 1565.32 677.368 1662.04 649.352C1758.76 621.336 1839.9 601.947 1939.32 635.231" stroke="#121939" stroke-width="2.5"/>
</g>
<defs>
<clipPath id="clip0_84_1666">
<rect width="1920" height="1080" fill="white"/>
</clipPath>
</defs>
</svg>
