<svg width="1920" height="1080" viewBox="0 0 1920 1080" fill="none" xmlns="http://www.w3.org/2000/svg">
<g clip-path="url(#clip0_198_1740)">
<rect width="1920" height="1080" fill="#121939"/>
<path d="M-16.4071 473.764C35.8317 494.495 131.787 512.089 228.506 484.074C325.225 456.058 406.369 436.669 505.783 469.952" stroke="#F9F9F9" stroke-width="2.5"/>
<path d="M-19.5308 528.293C32.7404 548.459 128.72 565.634 225.384 538.579C322.048 511.524 403.153 492.817 502.617 525.212" stroke="#F9F9F9" stroke-width="2.5"/>
<path d="M-22.7193 583.966C29.5519 604.131 125.531 621.307 222.195 594.252C318.859 567.197 399.964 548.49 499.429 580.885" stroke="#F9F9F9" stroke-width="2.5"/>
<path d="M-25.8747 639.043C26.3642 659.774 122.32 677.368 219.038 649.352C315.757 621.336 396.902 601.947 496.315 635.231" stroke="#F9F9F9" stroke-width="2.5"/>
<path d="M1425.59 473.764C1477.83 494.495 1573.79 512.089 1670.51 484.074C1767.22 456.058 1848.37 436.669 1947.78 469.952" stroke="#F9F9F9" stroke-width="2.5"/>
<path d="M1422.47 528.293C1474.74 548.459 1570.72 565.634 1667.38 538.579C1764.05 511.524 1845.15 492.817 1944.62 525.212" stroke="#F9F9F9" stroke-width="2.5"/>
<path d="M1419.28 583.966C1471.55 604.131 1567.53 621.307 1664.2 594.252C1760.86 567.197 1841.96 548.49 1941.43 580.885" stroke="#F9F9F9" stroke-width="2.5"/>
<path d="M1416.13 639.043C1468.36 659.774 1564.32 677.368 1661.04 649.352C1757.76 621.336 1838.9 601.947 1938.32 635.231" stroke="#F9F9F9" stroke-width="2.5"/>
</g>
<defs>
<clipPath id="clip0_198_1740">
<rect width="1920" height="1080" fill="white"/>
</clipPath>
</defs>
</svg>
