<svg width="70" height="70" viewBox="0 0 70 70" fill="none" xmlns="http://www.w3.org/2000/svg">
<circle cx="35" cy="35" r="35" fill="#DADADA"/>
<circle cx="35" cy="35" r="29" stroke="#212739" stroke-width="2"/>
<path d="M28 41.5V47H15.0156V41.5H17.5156V27.6406H15.0156V22.1406H28V27.6406H25.5156V41.5H28Z" fill="#212739"/>
<path d="M41.4688 47H29.9844V41.5H32.4844V27.6406H29.9844V22.1406H41.5C46.0208 22.1406 49.4792 23.1875 51.875 25.2812C54.2812 27.3646 55.4844 30.4531 55.4844 34.5469C55.4844 38.5365 54.2917 41.6094 51.9062 43.7656C49.5208 45.9219 46.0417 47 41.4688 47ZM40.4844 27.6406V41.5H41.4688C42.6354 41.5 43.5885 41.2031 44.3281 40.6094C45.0677 40.0052 45.6146 39.1771 45.9688 38.125C46.3229 37.0729 46.5 35.8802 46.5 34.5469C46.5 32.5052 46.1042 30.8438 45.3125 29.5625C44.5208 28.2812 43.2396 27.6406 41.4688 27.6406H40.4844Z" fill="#212739"/>
</svg>
