<svg width="349" height="39" viewBox="0 0 349 39" fill="none" xmlns="http://www.w3.org/2000/svg">
<path d="M78.125 29.1875V34H66.7637V29.1875H68.9512V17.0605H66.7637V12.248H78.125V17.0605H75.9512V29.1875H78.125ZM96.2129 29.0781V34H84.0312V29.0781H86.2734V17.0605H84.3457L83.7578 20.8066H79.916V12.248H100.383V20.8066H96.5547L95.9668 17.0605H93.9707V29.0781H96.2129ZM114.547 29.1875V34H103.186V29.1875H105.373V17.0605H103.186V12.248H114.547V17.0605H112.373V29.1875H114.547ZM128.602 34H117.24V29.1875H119.428V17.0605H117.24V12.248H131.213C133.473 12.248 135.132 12.7038 136.189 13.6152C137.256 14.5267 137.789 16.0397 137.789 18.1543C137.789 19.5671 137.393 20.6562 136.6 21.4219C135.807 22.1875 134.681 22.7025 133.223 22.9668C134.535 23.1764 135.479 23.6686 136.053 24.4434C136.636 25.2181 136.928 26.1842 136.928 27.3418V29.1055H139.977V34H135.574C134.635 34 133.879 33.9681 133.305 33.9043C132.73 33.8314 132.275 33.6673 131.938 33.4121C131.609 33.1478 131.336 32.7376 131.117 32.1816C130.789 31.3431 130.625 29.944 130.625 27.9844C130.625 26.8633 130.443 26.0339 130.078 25.4961C129.714 24.9492 129.048 24.6758 128.082 24.6758H126.428V29.1875H128.602V34ZM126.428 17.0605V21.5723H128.301C129.294 21.5723 130.033 21.3945 130.516 21.0391C130.999 20.6836 131.24 20.0592 131.24 19.166C131.24 18.5098 130.99 17.9948 130.488 17.6211C129.996 17.2474 129.358 17.0605 128.574 17.0605H126.428ZM151.051 34.3965C148.781 34.3965 146.817 33.9089 145.158 32.9336C143.508 31.9583 142.251 30.6185 141.385 28.9141C140.528 27.2096 140.1 25.2637 140.1 23.0762C140.1 20.8066 140.528 18.8288 141.385 17.1426C142.242 15.4473 143.49 14.1393 145.131 13.2188C146.781 12.2891 148.754 11.8242 151.051 11.8242C153.339 11.8242 155.307 12.2845 156.957 13.2051C158.598 14.1348 159.846 15.4473 160.703 17.1426C161.569 18.8379 162.002 20.8158 162.002 23.0762C162.002 25.2637 161.574 27.2096 160.717 28.9141C159.86 30.6185 158.602 31.9583 156.943 32.9336C155.294 33.9089 153.329 34.3965 151.051 34.3965ZM151.051 29.543C152.035 29.543 152.787 28.946 153.307 27.752C153.835 26.5579 154.1 24.9629 154.1 22.9668C154.1 21.0254 153.844 19.4896 153.334 18.3594C152.833 17.2292 152.072 16.6641 151.051 16.6641C150.021 16.6641 149.255 17.2292 148.754 18.3594C148.253 19.4896 148.002 21.0254 148.002 22.9668C148.002 24.9629 148.262 26.5579 148.781 27.752C149.301 28.946 150.057 29.543 151.051 29.543ZM181.758 34H171.709V29.1875H173.896V17.0605H171.709V12.248H181.785C185.741 12.248 188.767 13.1641 190.863 14.9961C192.969 16.819 194.021 19.5215 194.021 23.1035C194.021 26.5944 192.978 29.2832 190.891 31.1699C188.803 33.0566 185.759 34 181.758 34ZM180.896 17.0605V29.1875H181.758C182.779 29.1875 183.613 28.9277 184.26 28.4082C184.907 27.8796 185.385 27.1549 185.695 26.2344C186.005 25.3138 186.16 24.2702 186.16 23.1035C186.16 21.3171 185.814 19.8633 185.121 18.7422C184.428 17.6211 183.307 17.0605 181.758 17.0605H180.896ZM205.561 29.1875V34H196.373V29.1875H199.012V17.0605H196.373V12.248H208.104L212.328 22.7207L216.512 12.248H227.449V17.0605H224.824V29.1875H227.449V34H216.061V29.1875H217.824V21.0664L213.012 34H209.061L203.373 20.752V29.1875H205.561ZM239.836 34.3965C237.812 34.3965 235.971 33.9681 234.312 33.1113C232.635 32.2637 231.296 30.9876 230.293 29.2832C229.299 27.5788 228.803 25.4824 228.803 22.9941C228.803 20.916 229.181 19.0247 229.938 17.3203C230.694 15.6341 231.801 14.2988 233.26 13.3145C234.727 12.321 236.5 11.8242 238.578 11.8242C239.635 11.8242 240.583 12.0749 241.422 12.5762C242.27 13.0684 242.88 13.6927 243.254 14.4492L243.814 12.248H248.066V21.1758H243.705V20.7246C243.705 19.5671 243.436 18.6191 242.898 17.8809C242.37 17.1426 241.581 16.7734 240.533 16.7734C239.831 16.7734 239.184 17.0423 238.592 17.5801C238.008 18.127 237.548 18.8424 237.211 19.7266C236.874 20.6016 236.705 21.5039 236.705 22.4336C236.705 24.2656 237.161 25.7012 238.072 26.7402C238.984 27.7702 240.232 28.2852 241.818 28.2852C242.939 28.2852 243.979 28.0983 244.936 27.7246C245.902 27.3509 246.695 26.9499 247.314 26.5215L247.615 26.7812V32.6055C246.458 33.2708 245.236 33.7357 243.951 34C242.666 34.2643 241.294 34.3965 239.836 34.3965ZM260.973 34.3965C258.949 34.3965 257.108 33.9681 255.449 33.1113C253.772 32.2637 252.432 30.9876 251.43 29.2832C250.436 27.5788 249.939 25.4824 249.939 22.9941C249.939 20.916 250.318 19.0247 251.074 17.3203C251.831 15.6341 252.938 14.2988 254.396 13.3145C255.864 12.321 257.637 11.8242 259.715 11.8242C260.772 11.8242 261.72 12.0749 262.559 12.5762C263.406 13.0684 264.017 13.6927 264.391 14.4492L264.951 12.248H269.203V21.1758H264.842V20.7246C264.842 19.5671 264.573 18.6191 264.035 17.8809C263.507 17.1426 262.718 16.7734 261.67 16.7734C260.968 16.7734 260.321 17.0423 259.729 17.5801C259.145 18.127 258.685 18.8424 258.348 19.7266C258.01 20.6016 257.842 21.5039 257.842 22.4336C257.842 24.2656 258.298 25.7012 259.209 26.7402C260.12 27.7702 261.369 28.2852 262.955 28.2852C264.076 28.2852 265.115 28.0983 266.072 27.7246C267.038 27.3509 267.831 26.9499 268.451 26.5215L268.752 26.7812V32.6055C267.594 33.2708 266.373 33.7357 265.088 34C263.803 34.2643 262.431 34.3965 260.973 34.3965Z" fill="#DADADA"/>
<path fill-rule="evenodd" clip-rule="evenodd" d="M28.2442 8.40209C19.5414 12.2683 11.8068 13.4847 0 10.9939V12.6736C5.6535 14.3605 14.8232 15.3443 23.7969 12.2982C33.6893 8.94019 42.4095 6.39312 53.2727 9.32775V8H28.0655L28.2442 8.40209ZM0.071982 8L0 8.32957V8H0.071982ZM0.344327 8H20.6613C14.7735 9.65059 8.69916 9.79497 0.344327 8ZM24.7612 15.139C34.857 11.712 42.9815 9.42485 53.2727 12.4444V14.0287C42.4095 11.0941 33.6893 13.6412 23.7969 16.9991C14.8232 20.0453 5.6535 19.0615 0 17.3746V15.7921C6.16581 17.463 15.5262 18.2738 24.7612 15.139ZM0 20.4931V22.2058C5.6535 23.8927 14.8232 24.8764 23.7969 21.8303C33.6893 18.4724 42.4095 15.9253 53.2727 18.8599V17.1454C42.9815 14.1258 34.857 16.4129 24.7612 19.8399C15.5262 22.9748 6.16581 22.164 0 20.4931ZM0 27.0369V25.3242C6.16581 26.9952 15.5262 27.806 24.7612 24.6711C34.857 21.2441 42.9815 18.957 53.2727 21.9766V23.6911C42.4095 20.7565 33.6893 23.3035 23.7969 26.6615C14.8232 29.7076 5.6535 28.7239 0 27.0369ZM0 30.1554V31.8681C5.6535 33.5551 14.8232 34.5388 23.7969 31.4927C33.6893 28.1347 42.4095 25.5876 53.2727 28.5223V26.8077C42.9815 23.7882 34.857 26.0753 24.7612 29.5023C15.5262 32.6371 6.16581 31.8263 0 30.1554ZM0 36.6992V34.9866C6.16581 36.6575 15.5262 37.4683 24.7612 34.3335C34.857 30.9065 42.9815 28.6194 53.2727 31.6389V33.3534C42.4095 30.4188 33.6893 32.9658 23.7969 36.3238C14.8232 39.3699 5.6535 38.3862 0 36.6992ZM53.2727 38.4976C47.8242 37.2739 43.3586 36.7578 39.199 36.9849C35.7962 37.1708 32.6457 37.8514 29.3709 39H25.2473C35.1191 35.6653 43.1472 33.4991 53.2727 36.47V38.4976Z" fill="#DADADA"/>
</svg>
