<svg width="109" height="63" viewBox="0 0 109 63" fill="none" xmlns="http://www.w3.org/2000/svg">
<path d="M16.0625 20.8438V26H3.88965V20.8438H6.2334V7.85059H3.88965V2.69434H16.0625V7.85059H13.7334V20.8438H16.0625ZM35.4424 20.7266V26H22.3906V20.7266H24.793V7.85059H22.7275L22.0977 11.8643H17.9814V2.69434H39.9102V11.8643H35.8086L35.1787 7.85059H33.04V20.7266H35.4424ZM55.0859 20.8438V26H42.9131V20.8438H45.2568V7.85059H42.9131V2.69434H55.0859V7.85059H52.7568V20.8438H55.0859ZM70.1445 26H57.9717V20.8438H60.3154V7.85059H57.9717V2.69434H72.9424C75.3643 2.69434 77.1416 3.18262 78.2744 4.15918C79.417 5.13574 79.9883 6.75684 79.9883 9.02246C79.9883 10.5361 79.5635 11.7031 78.7139 12.5234C77.8643 13.3438 76.6582 13.8955 75.0957 14.1787C76.502 14.4033 77.5127 14.9307 78.1279 15.7607C78.7529 16.5908 79.0654 17.626 79.0654 18.8662V20.7559H82.332V26H77.6152C76.6094 26 75.7988 25.9658 75.1836 25.8975C74.5684 25.8193 74.0801 25.6436 73.7188 25.3701C73.3672 25.0869 73.0742 24.6475 72.8398 24.0518C72.4883 23.1533 72.3125 21.6543 72.3125 19.5547C72.3125 18.3535 72.1172 17.4648 71.7266 16.8887C71.3359 16.3027 70.623 16.0098 69.5879 16.0098H67.8154V20.8438H70.1445V26ZM67.8154 7.85059V12.6846H69.8223C70.8867 12.6846 71.6777 12.4941 72.1953 12.1133C72.7129 11.7324 72.9717 11.0635 72.9717 10.1064C72.9717 9.40332 72.7031 8.85156 72.166 8.45117C71.6387 8.05078 70.9551 7.85059 70.1152 7.85059H67.8154ZM94.1973 26.4248C91.7656 26.4248 89.6611 25.9023 87.8838 24.8574C86.1162 23.8125 84.7686 22.377 83.8408 20.5508C82.9229 18.7246 82.4639 16.6396 82.4639 14.2959C82.4639 11.8643 82.9229 9.74512 83.8408 7.93848C84.7588 6.12207 86.0967 4.7207 87.8545 3.73438C89.6221 2.73828 91.7363 2.24023 94.1973 2.24023C96.6484 2.24023 98.7578 2.7334 100.525 3.71973C102.283 4.71582 103.621 6.12207 104.539 7.93848C105.467 9.75488 105.931 11.874 105.931 14.2959C105.931 16.6396 105.472 18.7246 104.554 20.5508C103.636 22.377 102.288 23.8125 100.511 24.8574C98.7432 25.9023 96.6387 26.4248 94.1973 26.4248ZM94.1973 21.2246C95.252 21.2246 96.0576 20.585 96.6143 19.3057C97.1807 18.0264 97.4639 16.3174 97.4639 14.1787C97.4639 12.0986 97.1904 10.4531 96.6436 9.24219C96.1064 8.03125 95.291 7.42578 94.1973 7.42578C93.0938 7.42578 92.2734 8.03125 91.7363 9.24219C91.1992 10.4531 90.9307 12.0986 90.9307 14.1787C90.9307 16.3174 91.209 18.0264 91.7656 19.3057C92.3223 20.585 93.1328 21.2246 94.1973 21.2246Z" fill="#DADADA"/>
<path d="M11.6895 57H0.922852V51.8438H3.2666V38.8506H0.922852V33.6943H11.7188C15.957 33.6943 19.1992 34.6758 21.4453 36.6387C23.7012 38.5918 24.8291 41.4873 24.8291 45.3252C24.8291 49.0654 23.7109 51.9463 21.4746 53.9678C19.2383 55.9893 15.9766 57 11.6895 57ZM10.7666 38.8506V51.8438H11.6895C12.7832 51.8438 13.6768 51.5654 14.3701 51.0088C15.0635 50.4424 15.5762 49.666 15.9082 48.6797C16.2402 47.6934 16.4062 46.5752 16.4062 45.3252C16.4062 43.4111 16.0352 41.8535 15.293 40.6523C14.5508 39.4512 13.3496 38.8506 11.6895 38.8506H10.7666ZM37.1924 51.8438V57H27.3486V51.8438H30.1758V38.8506H27.3486V33.6943H39.917L44.4434 44.915L48.9258 33.6943H60.6445V38.8506H57.832V51.8438H60.6445V57H48.4424V51.8438H50.332V43.1426L45.1758 57H40.9424L34.8486 42.8057V51.8438H37.1924ZM73.916 57.4248C71.748 57.4248 69.7754 56.9658 67.998 56.0479C66.2012 55.1396 64.7656 53.7725 63.6914 51.9463C62.627 50.1201 62.0947 47.874 62.0947 45.208C62.0947 42.9814 62.5 40.9551 63.3105 39.1289C64.1211 37.3223 65.3076 35.8916 66.8701 34.8369C68.4424 33.7725 70.3418 33.2402 72.5684 33.2402C73.7012 33.2402 74.7168 33.5088 75.6152 34.0459C76.5234 34.5732 77.1777 35.2422 77.5781 36.0527L78.1787 33.6943H82.7344V43.2598H78.0615V42.7764C78.0615 41.5361 77.7734 40.5205 77.1973 39.7295C76.6309 38.9385 75.7861 38.543 74.6631 38.543C73.9111 38.543 73.2178 38.8311 72.583 39.4072C71.958 39.9932 71.4648 40.7598 71.1035 41.707C70.7422 42.6445 70.5615 43.6113 70.5615 44.6074C70.5615 46.5703 71.0498 48.1084 72.0264 49.2217C73.0029 50.3252 74.3408 50.877 76.04 50.877C77.2412 50.877 78.3545 50.6768 79.3799 50.2764C80.415 49.876 81.2646 49.4463 81.9287 48.9873L82.251 49.2656V55.5059C81.0107 56.2188 79.7021 56.7168 78.3252 57C76.9482 57.2832 75.4785 57.4248 73.916 57.4248ZM96.5625 57.4248C94.3945 57.4248 92.4219 56.9658 90.6445 56.0479C88.8477 55.1396 87.4121 53.7725 86.3379 51.9463C85.2734 50.1201 84.7412 47.874 84.7412 45.208C84.7412 42.9814 85.1465 40.9551 85.957 39.1289C86.7676 37.3223 87.9541 35.8916 89.5166 34.8369C91.0889 33.7725 92.9883 33.2402 95.2148 33.2402C96.3477 33.2402 97.3633 33.5088 98.2617 34.0459C99.1699 34.5732 99.8242 35.2422 100.225 36.0527L100.825 33.6943H105.381V43.2598H100.708V42.7764C100.708 41.5361 100.42 40.5205 99.8438 39.7295C99.2773 38.9385 98.4326 38.543 97.3096 38.543C96.5576 38.543 95.8643 38.8311 95.2295 39.4072C94.6045 39.9932 94.1113 40.7598 93.75 41.707C93.3887 42.6445 93.208 43.6113 93.208 44.6074C93.208 46.5703 93.6963 48.1084 94.6729 49.2217C95.6494 50.3252 96.9873 50.877 98.6865 50.877C99.8877 50.877 101.001 50.6768 102.026 50.2764C103.062 49.876 103.911 49.4463 104.575 48.9873L104.897 49.2656V55.5059C103.657 56.2188 102.349 56.7168 100.972 57C99.5947 57.2832 98.125 57.4248 96.5625 57.4248Z" fill="#DADADA"/>
</svg>
