<svg width="271" height="31" viewBox="0 0 271 31" fill="none" xmlns="http://www.w3.org/2000/svg">
<path d="M78.125 21.1875V26H66.7637V21.1875H68.9512V9.06055H66.7637V4.24805H78.125V9.06055H75.9512V21.1875H78.125ZM96.2129 21.0781V26H84.0312V21.0781H86.2734V9.06055H84.3457L83.7578 12.8066H79.916V4.24805H100.383V12.8066H96.5547L95.9668 9.06055H93.9707V21.0781H96.2129ZM114.547 21.1875V26H103.186V21.1875H105.373V9.06055H103.186V4.24805H114.547V9.06055H112.373V21.1875H114.547ZM128.602 26H117.24V21.1875H119.428V9.06055H117.24V4.24805H131.213C133.473 4.24805 135.132 4.70378 136.189 5.61523C137.256 6.52669 137.789 8.03971 137.789 10.1543C137.789 11.5671 137.393 12.6562 136.6 13.4219C135.807 14.1875 134.681 14.7025 133.223 14.9668C134.535 15.1764 135.479 15.6686 136.053 16.4434C136.636 17.2181 136.928 18.1842 136.928 19.3418V21.1055H139.977V26H135.574C134.635 26 133.879 25.9681 133.305 25.9043C132.73 25.8314 132.275 25.6673 131.938 25.4121C131.609 25.1478 131.336 24.7376 131.117 24.1816C130.789 23.3431 130.625 21.944 130.625 19.9844C130.625 18.8633 130.443 18.0339 130.078 17.4961C129.714 16.9492 129.048 16.6758 128.082 16.6758H126.428V21.1875H128.602V26ZM126.428 9.06055V13.5723H128.301C129.294 13.5723 130.033 13.3945 130.516 13.0391C130.999 12.6836 131.24 12.0592 131.24 11.166C131.24 10.5098 130.99 9.99479 130.488 9.62109C129.996 9.2474 129.358 9.06055 128.574 9.06055H126.428ZM151.051 26.3965C148.781 26.3965 146.817 25.9089 145.158 24.9336C143.508 23.9583 142.251 22.6185 141.385 20.9141C140.528 19.2096 140.1 17.2637 140.1 15.0762C140.1 12.8066 140.528 10.8288 141.385 9.14258C142.242 7.44727 143.49 6.13932 145.131 5.21875C146.781 4.28906 148.754 3.82422 151.051 3.82422C153.339 3.82422 155.307 4.28451 156.957 5.20508C158.598 6.13477 159.846 7.44727 160.703 9.14258C161.569 10.8379 162.002 12.8158 162.002 15.0762C162.002 17.2637 161.574 19.2096 160.717 20.9141C159.86 22.6185 158.602 23.9583 156.943 24.9336C155.294 25.9089 153.329 26.3965 151.051 26.3965ZM151.051 21.543C152.035 21.543 152.787 20.946 153.307 19.752C153.835 18.5579 154.1 16.9629 154.1 14.9668C154.1 13.0254 153.844 11.4896 153.334 10.3594C152.833 9.22917 152.072 8.66406 151.051 8.66406C150.021 8.66406 149.255 9.22917 148.754 10.3594C148.253 11.4896 148.002 13.0254 148.002 14.9668C148.002 16.9629 148.262 18.5579 148.781 19.752C149.301 20.946 150.057 21.543 151.051 21.543ZM181.758 26H171.709V21.1875H173.896V9.06055H171.709V4.24805H181.785C185.741 4.24805 188.767 5.16406 190.863 6.99609C192.969 8.81901 194.021 11.5215 194.021 15.1035C194.021 18.5944 192.978 21.2832 190.891 23.1699C188.803 25.0566 185.759 26 181.758 26ZM180.896 9.06055V21.1875H181.758C182.779 21.1875 183.613 20.9277 184.26 20.4082C184.907 19.8796 185.385 19.1549 185.695 18.2344C186.005 17.3138 186.16 16.2702 186.16 15.1035C186.16 13.3171 185.814 11.8633 185.121 10.7422C184.428 9.62109 183.307 9.06055 181.758 9.06055H180.896ZM205.561 21.1875V26H196.373V21.1875H199.012V9.06055H196.373V4.24805H208.104L212.328 14.7207L216.512 4.24805H227.449V9.06055H224.824V21.1875H227.449V26H216.061V21.1875H217.824V13.0664L213.012 26H209.061L203.373 12.752V21.1875H205.561ZM239.836 26.3965C237.812 26.3965 235.971 25.9681 234.312 25.1113C232.635 24.2637 231.296 22.9876 230.293 21.2832C229.299 19.5788 228.803 17.4824 228.803 14.9941C228.803 12.916 229.181 11.0247 229.938 9.32031C230.694 7.63411 231.801 6.29883 233.26 5.31445C234.727 4.32096 236.5 3.82422 238.578 3.82422C239.635 3.82422 240.583 4.07487 241.422 4.57617C242.27 5.06836 242.88 5.69271 243.254 6.44922L243.814 4.24805H248.066V13.1758H243.705V12.7246C243.705 11.5671 243.436 10.6191 242.898 9.88086C242.37 9.14258 241.581 8.77344 240.533 8.77344C239.831 8.77344 239.184 9.04232 238.592 9.58008C238.008 10.127 237.548 10.8424 237.211 11.7266C236.874 12.6016 236.705 13.5039 236.705 14.4336C236.705 16.2656 237.161 17.7012 238.072 18.7402C238.984 19.7702 240.232 20.2852 241.818 20.2852C242.939 20.2852 243.979 20.0983 244.936 19.7246C245.902 19.3509 246.695 18.9499 247.314 18.5215L247.615 18.7812V24.6055C246.458 25.2708 245.236 25.7357 243.951 26C242.666 26.2643 241.294 26.3965 239.836 26.3965ZM260.973 26.3965C258.949 26.3965 257.108 25.9681 255.449 25.1113C253.772 24.2637 252.432 22.9876 251.43 21.2832C250.436 19.5788 249.939 17.4824 249.939 14.9941C249.939 12.916 250.318 11.0247 251.074 9.32031C251.831 7.63411 252.938 6.29883 254.396 5.31445C255.864 4.32096 257.637 3.82422 259.715 3.82422C260.772 3.82422 261.72 4.07487 262.559 4.57617C263.406 5.06836 264.017 5.69271 264.391 6.44922L264.951 4.24805H269.203V13.1758H264.842V12.7246C264.842 11.5671 264.573 10.6191 264.035 9.88086C263.507 9.14258 262.718 8.77344 261.67 8.77344C260.968 8.77344 260.321 9.04232 259.729 9.58008C259.145 10.127 258.685 10.8424 258.348 11.7266C258.01 12.6016 257.842 13.5039 257.842 14.4336C257.842 16.2656 258.298 17.7012 259.209 18.7402C260.12 19.7702 261.369 20.2852 262.955 20.2852C264.076 20.2852 265.115 20.0983 266.072 19.7246C267.038 19.3509 267.831 18.9499 268.451 18.5215L268.752 18.7812V24.6055C267.594 25.2708 266.373 25.7357 265.088 26C263.803 26.2643 262.431 26.3965 260.973 26.3965Z" fill="white"/>
<path fill-rule="evenodd" clip-rule="evenodd" d="M28.2442 0.402094C19.5414 4.2683 11.8068 5.4847 0 2.99392V4.6736C5.6535 6.36054 14.8232 7.34428 23.7969 4.29816C33.6893 0.940191 42.4095 -1.60688 53.2727 1.32775V0H28.0655L28.2442 0.402094ZM0.071982 0L0 0.329571V0H0.071982ZM0.344327 0H20.6613C14.7735 1.65059 8.69916 1.79497 0.344327 0ZM24.7612 7.13896C34.857 3.71195 42.9815 1.42485 53.2727 4.44441V6.02873C42.4095 3.0941 33.6893 5.64118 23.7969 8.99915C14.8232 12.0453 5.6535 11.0615 0 9.37459V7.79208C6.16581 9.46301 15.5262 10.2738 24.7612 7.13896ZM0 12.4931V14.2058C5.6535 15.8927 14.8232 16.8764 23.7969 13.8303C33.6893 10.4724 42.4095 7.92528 53.2727 10.8599V9.14539C42.9815 6.12584 34.857 8.41294 24.7612 11.8399C15.5262 14.9748 6.16581 14.164 0 12.4931ZM0 19.0369V17.3242C6.16581 18.9952 15.5262 19.806 24.7612 16.6711C34.857 13.2441 42.9815 10.957 53.2727 13.9766V15.6911C42.4095 12.7565 33.6893 15.3035 23.7969 18.6615C14.8232 21.7076 5.6535 20.7239 0 19.0369ZM0 22.1554V23.8681C5.6535 25.5551 14.8232 26.5388 23.7969 23.4927C33.6893 20.1347 42.4095 17.5876 53.2727 20.5223V18.8077C42.9815 15.7882 34.857 18.0753 24.7612 21.5023C15.5262 24.6371 6.16581 23.8263 0 22.1554ZM0 28.6992V26.9866C6.16581 28.6575 15.5262 29.4683 24.7612 26.3335C34.857 22.9065 42.9815 20.6194 53.2727 23.6389V25.3534C42.4095 22.4188 33.6893 24.9658 23.7969 28.3238C14.8232 31.3699 5.6535 30.3862 0 28.6992ZM53.2727 30.4976C47.8242 29.2739 43.3586 28.7578 39.199 28.9849C35.7962 29.1708 32.6457 29.8514 29.3709 31H25.2473C35.1191 27.6653 43.1472 25.4991 53.2727 28.47V30.4976Z" fill="#DADADA"/>
</svg>
