<svg width="694" height="297" viewBox="0 0 694 297" fill="none" xmlns="http://www.w3.org/2000/svg">
<g clip-path="url(#clip0_206_2444)">
<path d="M628.091 91.095C628.091 91.095 585.947 14.042 448.77 1.47904C311.594 -11.084 283.498 52.568 259.534 65.131C235.569 77.694 176.071 52.5681 91.7815 90.257C7.49258 127.946 38.0674 182.385 32.2836 202.486C26.4987 222.587 0.881917 240.175 0.0550901 255.25C-0.77075 270.326 7.49258 297.126 7.49258 297.126H688.416C688.416 297.126 705.769 242.687 680.978 211.698C656.187 180.709 639.66 180.709 638.007 162.284C636.355 143.859 640.487 115.383 628.091 91.095Z" fill="#FA9A64"/>
<path opacity="0.7" d="M628.091 91.095C628.091 91.095 585.947 14.042 448.77 1.47904C311.594 -11.084 283.498 52.568 259.534 65.131C235.569 77.694 176.071 52.5681 91.7815 90.257C7.49258 127.946 38.0674 182.385 32.2836 202.486C26.4987 222.587 0.881917 240.175 0.0550901 255.25C-0.77075 270.326 7.49258 297.126 7.49258 297.126H688.416C688.416 297.126 705.769 242.687 680.978 211.698C656.187 180.709 639.66 180.709 638.007 162.284C636.355 143.859 640.487 115.383 628.091 91.095Z" fill="white"/>
<path d="M273.527 70.1649C274.616 69.0359 275.959 68.222 277.413 67.616C278.145 67.326 278.918 67.104 279.721 66.992C280.122 66.926 280.527 66.8919 280.949 66.8999L281.651 66.981C281.883 67.011 282.084 67.119 282.298 67.188C283.129 67.515 283.796 68.0529 284.345 68.6329C284.913 69.2049 285.38 69.833 285.856 70.437C286.796 71.66 287.702 72.852 288.623 74.114L287.772 74.246C288.063 72.475 288.82 70.8539 290.006 69.5269C291.166 68.1969 292.652 67.148 294.269 66.498C295.891 65.821 297.622 65.648 299.298 65.606C300.138 65.628 300.973 65.713 301.793 65.813C302.609 65.983 303.417 66.1759 304.206 66.4019L304.184 66.601C303.363 66.718 302.561 66.8 301.769 66.86L299.429 67.207C299.048 67.291 298.673 67.388 298.296 67.459C297.916 67.523 297.544 67.612 297.186 67.744C296.824 67.86 296.458 67.955 296.096 68.06C295.749 68.202 295.41 68.3579 295.058 68.4839C293.695 69.0629 292.392 69.783 291.308 70.807C290.256 71.822 289.24 73.054 288.674 74.442L288.239 75.509L287.821 74.574C287.222 73.232 286.381 71.95 285.33 70.917C284.288 69.887 282.944 69.116 281.773 68.815C281.476 68.732 281.203 68.717 280.929 68.69C280.606 68.708 280.262 68.6969 279.924 68.7359C279.245 68.8059 278.552 68.911 277.861 69.075C276.471 69.389 275.078 69.8519 273.637 70.3329L273.527 70.1649Z" fill="#263238"/>
<path d="M243.939 96.3929C244.459 95.6239 245.19 95.0989 246.005 94.6959C246.416 94.5009 246.862 94.3649 247.332 94.2839C247.567 94.2439 247.804 94.2229 248.059 94.2239C248.366 94.2429 248.667 94.3009 248.918 94.4189C249.945 94.9009 250.382 95.7759 250.875 96.4749C251.367 97.1919 251.888 97.8229 252.465 98.5029L251.614 98.6349C251.712 97.5729 252.072 96.5919 252.754 95.7909C253.412 94.9919 254.269 94.3329 255.219 93.9609C256.169 93.5629 257.182 93.5229 258.14 93.5569C258.618 93.5999 259.092 93.6889 259.55 93.7959C260.006 93.9369 260.452 94.1019 260.88 94.3119L260.858 94.5109C260.398 94.6589 259.957 94.7639 259.526 94.8439C259.097 94.9659 258.679 95.0669 258.272 95.1599C257.471 95.4089 256.699 95.6249 256.011 95.9509C255.319 96.2559 254.637 96.5729 254.058 97.0709C253.508 97.5599 252.889 98.1519 252.516 98.8319L251.964 99.8349L251.663 98.9639C251.403 98.2089 250.961 97.4759 250.355 96.9499C249.751 96.4259 248.928 96.1229 248.389 96.0569C248.253 96.0249 248.144 96.0399 248.04 96.0239C247.884 96.0309 247.709 96.0219 247.537 96.0399C247.19 96.0589 246.828 96.1029 246.454 96.1579C245.701 96.2619 244.923 96.4409 244.05 96.5599L243.939 96.3929Z" fill="#263238"/>
<path d="M300.354 96.3929C300.873 95.6239 301.604 95.0989 302.419 94.6959C302.83 94.5009 303.276 94.3649 303.746 94.2839C303.981 94.2439 304.218 94.2229 304.473 94.2239C304.78 94.2429 305.081 94.3009 305.332 94.4189C306.359 94.9009 306.796 95.7759 307.289 96.4749C307.781 97.1919 308.302 97.8229 308.879 98.5029L308.028 98.6349C308.126 97.5729 308.486 96.5919 309.169 95.7909C309.827 94.9919 310.684 94.3329 311.633 93.9609C312.583 93.5629 313.597 93.5229 314.554 93.5569C315.032 93.5999 315.505 93.6889 315.965 93.7959C316.42 93.9369 316.866 94.1019 317.294 94.3119L317.272 94.5109C316.812 94.6589 316.371 94.7639 315.94 94.8439C315.511 94.9659 315.093 95.0669 314.686 95.1599C313.885 95.4089 313.113 95.6249 312.425 95.9509C311.733 96.2559 311.051 96.5729 310.473 97.0709C309.923 97.5599 309.305 98.1519 308.931 98.8319L308.379 99.8349L308.078 98.9639C307.818 98.2089 307.375 97.4759 306.77 96.9499C306.166 96.4259 305.343 96.1229 304.804 96.0569C304.668 96.0249 304.559 96.0399 304.455 96.0239C304.299 96.0309 304.124 96.0219 303.952 96.0399C303.605 96.0589 303.243 96.1029 302.87 96.1579C302.116 96.2619 301.338 96.4409 300.465 96.5599L300.354 96.3929Z" fill="#263238"/>
<path d="M559.543 48.853C556.937 36.986 543.441 28.141 531.676 29.836C528.743 30.258 525.891 31.37 523.689 33.424C520.685 36.225 521.398 39.405 519.91 42.876C519.497 43.839 518.692 44.695 517.669 44.873C514.743 45.381 512.386 42.426 509.423 42.404C507.208 42.388 504.377 43.628 503.141 45.566C501.991 47.371 502.793 50.521 500.722 51.72C498.406 53.06 495.59 50.511 493.087 51.433C489.976 52.579 491.39 54.872 490.259 56.305C489.129 57.738 486.866 57.165 483.755 56.878C480.644 56.592 478.1 60.317 478.1 60.317H576.228C576.228 60.317 577.076 58.884 573.4 53.152C569.723 47.42 564.633 51.432 562.371 51.432C560.11 51.433 559.544 48.857 559.543 48.853Z" stroke="#263238" stroke-miterlimit="10"/>
<path d="M601.873 119.622C600.503 113.387 593.412 108.74 587.232 109.63C585.691 109.852 584.193 110.436 583.035 111.515C581.457 112.987 581.832 114.657 581.05 116.481C580.833 116.987 580.411 117.437 579.873 117.53C578.336 117.797 577.098 116.244 575.541 116.233C574.376 116.224 572.888 116.876 572.24 117.894C571.635 118.842 572.057 120.498 570.969 121.127C569.753 121.831 568.273 120.492 566.958 120.976C565.324 121.578 566.067 122.783 565.472 123.536C564.878 124.289 563.689 123.988 562.054 123.837C560.42 123.686 559.082 125.644 559.082 125.644H610.639C610.639 125.644 611.085 124.891 609.153 121.879C607.221 118.867 604.548 120.975 603.359 120.975C602.172 120.977 601.874 119.624 601.873 119.622Z" stroke="#263238" stroke-miterlimit="10"/>
<path d="M213.43 130.185C208.73 112.283 184.386 98.941 163.166 101.497C157.878 102.134 152.732 103.812 148.759 106.91C143.341 111.136 144.626 115.932 141.943 121.168C141.198 122.621 139.747 123.912 137.902 124.181C132.625 124.948 128.373 120.489 123.03 120.456C119.035 120.431 113.927 122.302 111.699 125.226C109.624 127.949 111.07 132.701 107.336 134.509C103.159 136.531 98.0799 132.685 93.564 134.077C87.9528 135.807 90.5033 139.266 88.4629 141.427C86.4225 143.589 82.3416 142.724 76.7314 142.292C71.1203 141.86 66.5303 147.48 66.5303 147.48H243.524C243.524 147.48 245.055 145.318 238.423 136.671C231.793 128.024 222.611 134.077 218.53 134.077C214.453 134.077 213.432 130.192 213.43 130.185Z" stroke="#263238" stroke-miterlimit="10"/>
<path d="M259.701 252.309H214.788V264.507H259.701V252.309Z" fill="white" stroke="#263238" stroke-miterlimit="10"/>
<path d="M259.701 252.309H228.874V264.507H259.701V252.309Z" fill="white" stroke="#263238" stroke-miterlimit="10"/>
<path d="M259.701 240.409H214.788V252.607H259.701V240.409Z" fill="white" stroke="#263238" stroke-miterlimit="10"/>
<path d="M259.701 240.409H228.874V252.607H259.701V240.409Z" fill="white" stroke="#263238" stroke-miterlimit="10"/>
<path d="M259.701 228.508H214.788V240.706H259.701V228.508Z" fill="white" stroke="#263238" stroke-miterlimit="10"/>
<path d="M259.701 228.508H228.874V240.706H259.701V228.508Z" fill="white" stroke="#263238" stroke-miterlimit="10"/>
<path d="M276.433 252.309H231.52V264.507H276.433V252.309Z" fill="white" stroke="#263238" stroke-miterlimit="10"/>
<path d="M276.433 252.309H245.605V264.507H276.433V252.309Z" fill="white" stroke="#263238" stroke-miterlimit="10"/>
<path d="M276.433 240.409H231.52V252.607H276.433V240.409Z" fill="white" stroke="#263238" stroke-miterlimit="10"/>
<path d="M276.433 240.409H245.605V252.607H276.433V240.409Z" fill="white" stroke="#263238" stroke-miterlimit="10"/>
<path d="M276.433 228.508H231.52V240.706H276.433V228.508Z" fill="white" stroke="#263238" stroke-miterlimit="10"/>
<path d="M276.433 228.508H245.605V240.706H276.433V228.508Z" fill="white" stroke="#263238" stroke-miterlimit="10"/>
<path d="M293.166 252.309H248.253V264.507H293.166V252.309Z" fill="#8C8C8C" stroke="#263238" stroke-miterlimit="10"/>
<path d="M293.166 252.309H262.339V264.507H293.166V252.309Z" fill="#8C8C8C" stroke="#263238" stroke-miterlimit="10"/>
<path d="M293.166 240.409H248.253V252.607H293.166V240.409Z" fill="white" stroke="#263238" stroke-miterlimit="10"/>
<path d="M293.166 240.409H262.339V252.607H293.166V240.409Z" fill="white" stroke="#263238" stroke-miterlimit="10"/>
<path d="M293.166 228.508H248.253V240.706H293.166V228.508Z" fill="#4E6EFE" stroke="#263238" stroke-miterlimit="10"/>
<path d="M293.166 228.508H262.339V240.706H293.166V228.508Z" fill="#4E6EFE" stroke="#263238" stroke-miterlimit="10"/>
<path d="M232.985 187.148H231.285V207.488H232.985V187.148Z" fill="white" stroke="#263238" stroke-miterlimit="10"/>
<path d="M234.496 201.173H229.774V210.168H234.496V201.173Z" fill="white" stroke="#263238" stroke-miterlimit="10"/>
<path d="M200.753 219.95L214.083 221.803V214.469H200.753V219.95Z" fill="white" stroke="#263238" stroke-miterlimit="10"/>
<path d="M253.379 209.211H214.083V214.469H253.379V209.211Z" fill="white" stroke="#263238" stroke-miterlimit="10"/>
<path d="M253.379 209.211H244.772V214.469H253.379V209.211Z" fill="white" stroke="#263238" stroke-miterlimit="10"/>
<path d="M250.81 214.469H210.061V266.577H250.81V214.469Z" fill="white" stroke="#263238" stroke-miterlimit="10"/>
<path d="M256.86 214.469H246.62V266.577H256.86V214.469Z" fill="white" stroke="#263238" stroke-miterlimit="10"/>
<path d="M264.138 219.95L250.81 221.803V214.469H264.138V219.95Z" fill="white" stroke="#263238" stroke-miterlimit="10"/>
<path d="M267.444 214.469H264.139V220.155H267.444V214.469Z" fill="white" stroke="#263238" stroke-miterlimit="10"/>
<path d="M267.445 220.155L257.693 222.009H250.81L264.138 220.155H267.445Z" fill="white" stroke="#263238" stroke-miterlimit="10"/>
<path d="M214.082 218.397H212.024V221.803H214.082V218.397Z" fill="#263238"/>
<path d="M217.502 218.397H215.443V221.803H217.502V218.397Z" fill="#263238"/>
<path d="M226.253 218.397H224.195V221.803H226.253V218.397Z" fill="#263238"/>
<path d="M229.671 218.397H227.613V221.803H229.671V218.397Z" fill="#263238"/>
<path d="M238.421 218.397H236.364V221.803H238.421V218.397Z" fill="#263238"/>
<path d="M241.839 218.397H239.782V221.803H241.839V218.397Z" fill="#263238"/>
<path d="M214.082 228.923H212.024V232.329H214.082V228.923Z" fill="#263238"/>
<path d="M217.502 228.923H215.443V232.329H217.502V228.923Z" fill="#263238"/>
<path d="M226.253 228.923H224.195V232.329H226.253V228.923Z" fill="#263238"/>
<path d="M229.671 228.923H227.613V232.329H229.671V228.923Z" fill="#263238"/>
<path d="M238.421 228.923H236.364V232.329H238.421V228.923Z" fill="#263238"/>
<path d="M241.839 228.923H239.782V232.329H241.839V228.923Z" fill="#263238"/>
<path d="M214.082 239.449H212.024V242.854H214.082V239.449Z" fill="#263238"/>
<path d="M217.502 239.449H215.443V242.854H217.502V239.449Z" fill="#263238"/>
<path d="M226.253 239.449H224.195V242.854H226.253V239.449Z" fill="#263238"/>
<path d="M229.671 239.449H227.613V242.854H229.671V239.449Z" fill="#263238"/>
<path d="M238.421 239.449H236.364V242.854H238.421V239.449Z" fill="#263238"/>
<path d="M241.839 239.449H239.782V242.854H241.839V239.449Z" fill="#263238"/>
<path d="M214.082 249.975H212.024V253.381H214.082V249.975Z" fill="#263238"/>
<path d="M217.502 249.975H215.443V253.381H217.502V249.975Z" fill="#263238"/>
<path d="M226.253 249.975H224.195V253.381H226.253V249.975Z" fill="#263238"/>
<path d="M229.671 249.975H227.613V253.381H229.671V249.975Z" fill="#263238"/>
<path d="M238.421 249.975H236.364V253.381H238.421V249.975Z" fill="#263238"/>
<path d="M241.839 249.975H239.782V253.381H241.839V249.975Z" fill="#263238"/>
<path d="M220.334 211.125H215.99V213.996H220.334V211.125Z" fill="#263238"/>
<path d="M225.904 211.125H221.561V213.996H225.904V211.125Z" fill="#263238"/>
<path d="M231.475 211.125H227.132V213.996H231.475V211.125Z" fill="#263238"/>
<path d="M237.045 211.125H232.702V213.996H237.045V211.125Z" fill="#263238"/>
<path d="M242.615 211.125H238.271V213.996H242.615V211.125Z" fill="#263238"/>
<path d="M191.809 252.309H146.896V264.507H191.809V252.309Z" fill="white" stroke="#263238" stroke-miterlimit="10"/>
<path d="M191.809 252.309H160.981V264.507H191.809V252.309Z" fill="white" stroke="#263238" stroke-miterlimit="10"/>
<path d="M191.809 240.409H146.896V252.607H191.809V240.409Z" fill="white" stroke="#263238" stroke-miterlimit="10"/>
<path d="M191.809 240.409H160.981V252.607H191.809V240.409Z" fill="white" stroke="#263238" stroke-miterlimit="10"/>
<path d="M191.809 228.508H146.896V240.706H191.809V228.508Z" fill="white" stroke="#263238" stroke-miterlimit="10"/>
<path d="M191.809 228.508H160.981V240.706H191.809V228.508Z" fill="white" stroke="#263238" stroke-miterlimit="10"/>
<path d="M208.54 252.309H163.627V264.507H208.54V252.309Z" fill="white" stroke="#263238" stroke-miterlimit="10"/>
<path d="M208.54 252.309H177.713V264.507H208.54V252.309Z" fill="#8C8C8C" stroke="#263238" stroke-miterlimit="10"/>
<path d="M208.54 240.409H163.627V252.607H208.54V240.409Z" fill="white" stroke="#263238" stroke-miterlimit="10"/>
<path d="M208.54 240.409H177.713V252.607H208.54V240.409Z" fill="white" stroke="#263238" stroke-miterlimit="10"/>
<path d="M208.54 228.508H163.627V240.706H208.54V228.508Z" fill="white" stroke="#263238" stroke-miterlimit="10"/>
<path d="M208.54 228.508H177.713V240.706H208.54V228.508Z" fill="#8C8C8C" stroke="#263238" stroke-miterlimit="10"/>
<path d="M225.273 252.309H180.36V264.507H225.273V252.309Z" fill="white" stroke="#263238" stroke-miterlimit="10"/>
<path d="M225.274 252.309H194.446V264.507H225.274V252.309Z" fill="white" stroke="#263238" stroke-miterlimit="10"/>
<path d="M225.273 240.409H180.36V252.607H225.273V240.409Z" fill="#C2C2C2" stroke="#263238" stroke-miterlimit="10"/>
<path d="M225.274 240.409H194.446V252.607H225.274V240.409Z" fill="#C2C2C2" stroke="#263238" stroke-miterlimit="10"/>
<path d="M225.273 228.508H180.36V240.706H225.273V228.508Z" fill="#8C8C8C" stroke="#263238" stroke-miterlimit="10"/>
<path d="M225.274 228.508H194.446V240.706H225.274V228.508Z" fill="#8C8C8C" stroke="#263238" stroke-miterlimit="10"/>
<path d="M99.6269 252.309H54.7139V264.507H99.6269V252.309Z" fill="white" stroke="#263238" stroke-miterlimit="10"/>
<path d="M99.6272 252.309H68.7998V264.507H99.6272V252.309Z" fill="white" stroke="#263238" stroke-miterlimit="10"/>
<path d="M99.6269 240.409H54.7139V252.607H99.6269V240.409Z" fill="white" stroke="#263238" stroke-miterlimit="10"/>
<path d="M99.6272 240.409H68.7998V252.607H99.6272V240.409Z" fill="white" stroke="#263238" stroke-miterlimit="10"/>
<path d="M99.6269 228.508H54.7139V240.706H99.6269V228.508Z" fill="#4E6EFE" stroke="#263238" stroke-miterlimit="10"/>
<path d="M99.6272 228.508H68.7998V240.706H99.6272V228.508Z" fill="#4E6EFE" stroke="#263238" stroke-miterlimit="10"/>
<path d="M138.487 252.309H93.5742V264.507H138.487V252.309Z" fill="white" stroke="#263238" stroke-miterlimit="10"/>
<path d="M138.488 252.309H107.66V264.507H138.488V252.309Z" fill="white" stroke="#263238" stroke-miterlimit="10"/>
<path d="M138.487 240.409H93.5742V252.607H138.487V240.409Z" fill="white" stroke="#263238" stroke-miterlimit="10"/>
<path d="M138.488 240.409H107.66V252.607H138.488V240.409Z" fill="white" stroke="#263238" stroke-miterlimit="10"/>
<path d="M138.487 228.508H93.5742V240.706H138.487V228.508Z" fill="white" stroke="#263238" stroke-miterlimit="10"/>
<path d="M138.488 228.508H107.66V240.706H138.488V228.508Z" fill="white" stroke="#263238" stroke-miterlimit="10"/>
<path d="M155.22 252.309H110.307V264.507H155.22V252.309Z" fill="white" stroke="#263238" stroke-miterlimit="10"/>
<path d="M155.22 252.309H124.393V264.507H155.22V252.309Z" fill="white" stroke="#263238" stroke-miterlimit="10"/>
<path d="M155.22 240.409H110.307V252.607H155.22V240.409Z" fill="white" stroke="#263238" stroke-miterlimit="10"/>
<path d="M155.22 240.409H124.393V252.607H155.22V240.409Z" fill="white" stroke="#263238" stroke-miterlimit="10"/>
<path d="M155.22 228.508H110.307V240.706H155.22V228.508Z" fill="white" stroke="#263238" stroke-miterlimit="10"/>
<path d="M155.22 228.508H124.393V240.706H155.22V228.508Z" fill="white" stroke="#263238" stroke-miterlimit="10"/>
<path d="M171.952 252.309H127.039V264.507H171.952V252.309Z" fill="#4E6EFE" stroke="#263238" stroke-miterlimit="10"/>
<path d="M171.952 252.309H141.125V264.507H171.952V252.309Z" fill="#4E6EFE" stroke="#263238" stroke-miterlimit="10"/>
<path d="M171.952 240.409H127.039V252.607H171.952V240.409Z" fill="white" stroke="#263238" stroke-miterlimit="10"/>
<path d="M171.952 240.409H141.125V252.607H171.952V240.409Z" fill="white" stroke="#263238" stroke-miterlimit="10"/>
<path d="M171.952 228.508H127.039V240.706H171.952V228.508Z" fill="#4E6EFE" stroke="#263238" stroke-miterlimit="10"/>
<path d="M171.952 228.508H141.125V240.706H171.952V228.508Z" fill="#4E6EFE" stroke="#263238" stroke-miterlimit="10"/>
<path d="M116.359 252.309H71.4463V264.507H116.359V252.309Z" fill="white" stroke="#263238" stroke-miterlimit="10"/>
<path d="M116.36 252.309H85.5322V264.507H116.36V252.309Z" fill="white" stroke="#263238" stroke-miterlimit="10"/>
<path d="M116.359 240.409H71.4463V252.607H116.359V240.409Z" fill="white" stroke="#263238" stroke-miterlimit="10"/>
<path d="M116.36 240.409H85.5322V252.607H116.36V240.409Z" fill="white" stroke="#263238" stroke-miterlimit="10"/>
<path d="M116.359 228.508H71.4463V240.706H116.359V228.508Z" fill="#4E6EFE" stroke="#263238" stroke-miterlimit="10"/>
<path d="M116.36 228.508H85.5322V240.706H116.36V228.508Z" fill="#4E6EFE" stroke="#263238" stroke-miterlimit="10"/>
<path d="M133.092 252.309H88.1787V264.507H133.092V252.309Z" fill="white" stroke="#263238" stroke-miterlimit="10"/>
<path d="M133.092 252.309H102.265V264.507H133.092V252.309Z" fill="white" stroke="#263238" stroke-miterlimit="10"/>
<path d="M133.092 240.409H88.1787V252.607H133.092V240.409Z" fill="white" stroke="#263238" stroke-miterlimit="10"/>
<path d="M133.092 240.409H102.265V252.607H133.092V240.409Z" fill="#C2C2C2" stroke="#263238" stroke-miterlimit="10"/>
<path d="M133.092 228.508H88.1787V240.706H133.092V228.508Z" fill="white" stroke="#263238" stroke-miterlimit="10"/>
<path d="M133.092 228.508H102.265V240.706H133.092V228.508Z" fill="white" stroke="#263238" stroke-miterlimit="10"/>
<path d="M110.782 255.284V242.193C110.782 242.193 112.25 241.3 113.13 243.978C114.012 246.656 117.678 258.408 117.678 258.408L110.782 255.284Z" fill="white" stroke="#263238" stroke-miterlimit="10"/>
<path d="M110.782 242.207H51.7783V254.392H110.782V242.207Z" fill="white" stroke="#263238" stroke-miterlimit="10"/>
<path d="M299.037 263.135H127L117.53 254.337H44.9268L65.0508 284.73C65.0508 284.73 66.6295 289.529 61.8945 290.729C60.1806 291.163 58.4658 291.493 56.9769 291.737C54.3573 292.165 52.4244 294.439 52.4244 297.128H268.421C268.421 297.128 294.697 293.928 299.037 263.135Z" fill="#263238" stroke="#263238" stroke-miterlimit="10"/>
<path d="M64.3556 289.315C63.8376 289.92 63.0581 290.434 61.8939 290.729C60.18 291.163 58.4652 291.493 56.9763 291.737C54.3567 292.165 52.4238 294.439 52.4238 297.128H268.42C268.42 297.128 277.098 296.059 285.304 289.315H64.3556Z" fill="white" stroke="#263238" stroke-miterlimit="10"/>
<path d="M429.988 147.48H423.37V286.926H429.988V147.48Z" fill="#263238" stroke="#263238" stroke-miterlimit="10"/>
<path d="M450.639 247.165H399.592V254.83H450.639V247.165Z" fill="#263238" stroke="#263238" stroke-miterlimit="10"/>
<path d="M385.412 147.48H378.795V286.926H385.412V147.48Z" fill="#263238" stroke="#263238" stroke-miterlimit="10"/>
<path d="M415.887 147.48H409.27V286.926H415.887V147.48Z" fill="#263238" stroke="#263238" stroke-miterlimit="10"/>
<path d="M665.534 286.885H225.77V297.128H665.534V286.885Z" fill="#C2C2C2" stroke="#263238" stroke-miterlimit="10"/>
<path d="M665.536 286.885H391.201V297.128H665.536V286.885Z" fill="#263238" stroke="#263238" stroke-miterlimit="10"/>
<path d="M331.528 131.672H299.388V143.648H331.528V131.672Z" fill="white" stroke="#263238" stroke-miterlimit="10"/>
<path d="M331.528 131.672H317.349V143.648H331.528V131.672Z" fill="white" stroke="#263238" stroke-miterlimit="10"/>
<path d="M380.213 131.672H348.072V143.648H380.213V131.672Z" fill="white" stroke="#263238" stroke-miterlimit="10"/>
<path d="M380.213 131.672H366.033V143.648H380.213V131.672Z" fill="white" stroke="#263238" stroke-miterlimit="10"/>
<path d="M408.1 247.165H357.053V254.83H408.1V247.165Z" fill="#2E3F8A" stroke="#263238" stroke-miterlimit="10"/>
<path d="M359.888 147.48H353.271V286.926H359.888V147.48Z" fill="#2E3F8A" stroke="#263238" stroke-miterlimit="10"/>
<path d="M389.665 147.48H383.048V286.926H389.665V147.48Z" fill="#2E3F8A" stroke="#263238" stroke-miterlimit="10"/>
<path d="M410.935 147.48H404.317V286.926H410.935V147.48Z" fill="#2E3F8A" stroke="#263238" stroke-miterlimit="10"/>
<path d="M433.15 147.48H426.532V286.926H433.15V147.48Z" fill="#2E3F8A" stroke="#263238" stroke-miterlimit="10"/>
<path d="M454.419 147.48H447.802V286.926H454.419V147.48Z" fill="#263238" stroke="#263238" stroke-miterlimit="10"/>
<path d="M393.509 84.5111H389.063V145.899H393.509V84.5111Z" fill="#2E3F8A" stroke="#263238" stroke-miterlimit="10"/>
<path d="M269.61 144.606L391.793 84.7251L373.595 147.48" stroke="#263238" stroke-width="2" stroke-miterlimit="10"/>
<path d="M536.189 143.648H282.372V147.48H536.189V143.648Z" fill="#2E3F8A" stroke="#263238" stroke-miterlimit="10"/>
<path d="M536.19 143.648H525.792V147.48H536.19V143.648Z" fill="#263238" stroke="#263238" stroke-miterlimit="10"/>
<path d="M504.994 144.606L391.793 84.7251L401.009 147.48" stroke="#263238" stroke-width="2" stroke-miterlimit="10"/>
<path d="M518.228 143.648H264.411V147.48H518.228V143.648Z" fill="#2E3F8A" stroke="#263238" stroke-miterlimit="10"/>
<path d="M518.229 143.648H507.83V147.48H518.229V143.648Z" fill="#263238" stroke="#263238" stroke-miterlimit="10"/>
<path d="M400.774 80.4141H382.812V88.5581H400.774V80.4141Z" fill="#2E3F8A" stroke="#263238" stroke-miterlimit="10"/>
<path d="M408.808 78.0181H373.832V80.4131H408.808V78.0181Z" fill="#2E3F8A" stroke="#263238" stroke-miterlimit="10"/>
<path d="M349.872 274.448H304.959V286.646H349.872V274.448Z" fill="white" stroke="#263238" stroke-miterlimit="10"/>
<path d="M349.872 274.448H319.045V286.646H349.872V274.448Z" fill="white" stroke="#263238" stroke-miterlimit="10"/>
<path d="M349.872 262.548H304.959V274.746H349.872V262.548Z" fill="#C2C2C2" stroke="#263238" stroke-miterlimit="10"/>
<path d="M349.872 262.548H319.045V274.746H349.872V262.548Z" fill="#C2C2C2" stroke="#263238" stroke-miterlimit="10"/>
<path d="M349.872 250.647H304.959V262.845H349.872V250.647Z" fill="white" stroke="#263238" stroke-miterlimit="10"/>
<path d="M349.872 250.647H319.045V262.845H349.872V250.647Z" fill="white" stroke="#263238" stroke-miterlimit="10"/>
<path d="M366.603 274.448H321.69V286.646H366.603V274.448Z" fill="#2E3F8A" stroke="#263238" stroke-miterlimit="10"/>
<path d="M366.604 274.448H335.776V286.646H366.604V274.448Z" fill="#2E3F8A" stroke="#263238" stroke-miterlimit="10"/>
<path d="M366.603 262.548H321.69V274.746H366.603V262.548Z" fill="white" stroke="#263238" stroke-miterlimit="10"/>
<path d="M366.604 262.548H335.776V274.746H366.604V262.548Z" fill="white" stroke="#263238" stroke-miterlimit="10"/>
<path d="M366.603 250.647H321.69V262.845H366.603V250.647Z" fill="#8C8C8C" stroke="#263238" stroke-miterlimit="10"/>
<path d="M366.604 250.647H335.776V262.845H366.604V250.647Z" fill="#8C8C8C" stroke="#263238" stroke-miterlimit="10"/>
<path d="M383.337 274.448H338.424V286.646H383.337V274.448Z" fill="#C2C2C2" stroke="#263238" stroke-miterlimit="10"/>
<path d="M383.337 274.448H352.51V286.646H383.337V274.448Z" fill="#C2C2C2" stroke="#263238" stroke-miterlimit="10"/>
<path d="M383.337 262.548H338.424V274.746H383.337V262.548Z" fill="#2E3F8A" stroke="#263238" stroke-miterlimit="10"/>
<path d="M383.337 262.548H352.51V274.746H383.337V262.548Z" fill="#2E3F8A" stroke="#263238" stroke-miterlimit="10"/>
<path d="M383.337 250.647H338.424V262.845H383.337V250.647Z" fill="white" stroke="#263238" stroke-miterlimit="10"/>
<path d="M383.337 250.647H352.51V262.845H383.337V250.647Z" fill="white" stroke="#263238" stroke-miterlimit="10"/>
<path d="M306.005 147.48H278.591V152.749H306.005V147.48Z" fill="#2E3F8A" stroke="#263238" stroke-miterlimit="10"/>
<path d="M337.201 147.48H309.786V152.749H337.201V147.48Z" fill="#2E3F8A" stroke="#263238" stroke-miterlimit="10"/>
<path d="M498.85 147.48H471.436V152.749H498.85V147.48Z" fill="#2E3F8A" stroke="#263238" stroke-miterlimit="10"/>
<path d="M530.045 147.48H502.631V152.749H530.045V147.48Z" fill="#2E3F8A" stroke="#263238" stroke-miterlimit="10"/>
<path d="M535.893 228.154H485.444V283.446H535.893V228.154Z" fill="white" stroke="#263238" stroke-miterlimit="10"/>
<path d="M535.893 231.592H485.444V286.884H535.893V231.592Z" fill="white" stroke="#263238" stroke-miterlimit="10"/>
<path d="M494.243 286.289V232.186" stroke="#263238" stroke-miterlimit="10"/>
<path d="M500.11 286.289V232.186" stroke="#263238" stroke-miterlimit="10"/>
<path d="M493.933 235.525H499.549" stroke="#263238" stroke-miterlimit="10"/>
<path d="M493.933 240.363H499.549" stroke="#263238" stroke-miterlimit="10"/>
<path d="M493.933 245.2H499.549" stroke="#263238" stroke-miterlimit="10"/>
<path d="M493.933 250.038H499.549" stroke="#263238" stroke-miterlimit="10"/>
<path d="M493.933 254.875H499.549" stroke="#263238" stroke-miterlimit="10"/>
<path d="M493.933 259.713H499.549" stroke="#263238" stroke-miterlimit="10"/>
<path d="M493.933 264.55H499.549" stroke="#263238" stroke-miterlimit="10"/>
<path d="M493.933 269.388H499.549" stroke="#263238" stroke-miterlimit="10"/>
<path d="M493.933 274.226H499.549" stroke="#263238" stroke-miterlimit="10"/>
<path d="M493.933 279.063H499.549" stroke="#263238" stroke-miterlimit="10"/>
<path d="M493.933 283.901H499.549" stroke="#263238" stroke-miterlimit="10"/>
<path d="M640.813 243.743H518.702V287.289H640.813V243.743Z" fill="#2E3F8A" stroke="#263238" stroke-miterlimit="10"/>
<path d="M640.812 243.743H616.412V287.289H640.812V243.743Z" fill="#2E3F8A" stroke="#263238" stroke-miterlimit="10"/>
<path d="M644.769 235.56H514.744V260.932H644.769V235.56Z" fill="#C2C2C2" stroke="#263238" stroke-miterlimit="10"/>
<path d="M644.771 235.56H616.519V260.932H644.771V235.56Z" fill="#263238" stroke="#263238" stroke-miterlimit="10"/>
<path d="M535.096 265.516H524.921V275.829H535.096V265.516Z" fill="#263238" stroke="#263238" stroke-miterlimit="10"/>
<path d="M595.586 265.516H585.41V275.829H595.586V265.516Z" fill="#263238" stroke="#263238" stroke-miterlimit="10"/>
<path d="M563.927 265.516H553.752V287.289H563.927V265.516Z" fill="#263238" stroke="#263238" stroke-miterlimit="10"/>
</g>
<defs>
<clipPath id="clip0_206_2444">
<rect width="694" height="297" fill="white"/>
</clipPath>
</defs>
</svg>
