<svg width="700" height="450" viewBox="0 0 800 500" fill="none" xmlns="http://www.w3.org/2000/svg">
<path d="M663.944 182.095C663.944 182.095 621.23 105.042 482.2 92.479C343.17 79.916 314.694 143.568 290.406 156.131C266.118 168.694 205.815 143.568 120.387 181.257C34.9591 218.946 65.9471 273.385 60.0851 293.486C54.2221 313.587 28.2591 331.175 27.4211 346.25C26.5841 361.326 34.9591 388.126 34.9591 388.126H725.084C725.084 388.126 742.672 333.687 717.546 302.698C692.42 271.709 675.669 271.709 673.994 253.284C672.32 234.859 676.507 206.383 663.944 182.095Z" fill="#FA9A64"/>
<path opacity="0.7" d="M663.944 182.095C663.944 182.095 621.23 105.042 482.2 92.479C343.17 79.916 314.694 143.568 290.406 156.131C266.118 168.694 205.815 143.568 120.387 181.257C34.9591 218.946 65.9471 273.385 60.0851 293.486C54.2221 313.587 28.2591 331.175 27.4211 346.25C26.5841 361.326 34.9591 388.126 34.9591 388.126H725.084C725.084 388.126 742.672 333.687 717.546 302.698C692.42 271.709 675.669 271.709 673.994 253.284C672.32 234.859 676.507 206.383 663.944 182.095Z" fill="white"/>
<path d="M304.589 161.165C305.692 160.036 307.053 159.222 308.527 158.616C309.269 158.326 310.052 158.104 310.866 157.992C311.273 157.926 311.683 157.892 312.111 157.9L312.822 157.981C313.058 158.011 313.261 158.119 313.478 158.188C314.32 158.515 314.996 159.053 315.553 159.633C316.128 160.205 316.602 160.833 317.084 161.437C318.037 162.66 318.955 163.852 319.889 165.114L319.026 165.246C319.321 163.475 320.088 161.854 321.29 160.527C322.466 159.197 323.972 158.148 325.611 157.498C327.255 156.821 329.009 156.648 330.708 156.606C331.559 156.628 332.406 156.713 333.237 156.813C334.064 156.983 334.883 157.176 335.682 157.402L335.66 157.601C334.828 157.718 334.015 157.8 333.212 157.86L330.841 158.207C330.455 158.291 330.074 158.388 329.692 158.459C329.307 158.523 328.93 158.612 328.567 158.744C328.2 158.86 327.83 158.955 327.463 159.06C327.111 159.202 326.767 159.358 326.411 159.484C325.029 160.063 323.709 160.783 322.61 161.807C321.544 162.822 320.514 164.054 319.94 165.442L319.499 166.509L319.076 165.574C318.469 164.232 317.616 162.95 316.551 161.917C315.495 160.887 314.133 160.116 312.946 159.815C312.645 159.732 312.368 159.717 312.091 159.69C311.763 159.708 311.415 159.697 311.072 159.736C310.384 159.806 309.682 159.911 308.981 160.075C307.572 160.389 306.161 160.852 304.7 161.333L304.589 161.165Z" fill="#263238"/>
<path d="M274.601 187.393C275.128 186.624 275.868 186.099 276.694 185.696C277.111 185.501 277.563 185.365 278.039 185.284C278.278 185.244 278.518 185.223 278.776 185.224C279.087 185.243 279.392 185.301 279.647 185.419C280.688 185.901 281.131 186.776 281.63 187.475C282.129 188.192 282.657 188.823 283.242 189.503L282.379 189.635C282.479 188.573 282.843 187.592 283.535 186.791C284.202 185.992 285.07 185.333 286.033 184.961C286.996 184.563 288.023 184.523 288.993 184.557C289.478 184.6 289.958 184.689 290.423 184.796C290.885 184.937 291.337 185.102 291.77 185.312L291.748 185.511C291.282 185.659 290.835 185.764 290.398 185.844C289.963 185.966 289.54 186.067 289.127 186.16C288.315 186.409 287.533 186.625 286.836 186.951C286.134 187.256 285.443 187.573 284.856 188.071C284.299 188.56 283.672 189.152 283.293 189.832L282.734 190.835L282.429 189.964C282.165 189.209 281.717 188.476 281.103 187.95C280.491 187.426 279.657 187.123 279.111 187.057C278.973 187.025 278.862 187.04 278.757 187.024C278.599 187.031 278.421 187.022 278.247 187.04C277.895 187.059 277.529 187.103 277.15 187.158C276.386 187.262 275.598 187.441 274.713 187.56L274.601 187.393Z" fill="#263238"/>
<path d="M331.776 187.393C332.303 186.624 333.043 186.099 333.869 185.696C334.286 185.501 334.738 185.365 335.214 185.284C335.453 185.244 335.693 185.223 335.951 185.224C336.262 185.243 336.567 185.301 336.822 185.419C337.863 185.901 338.306 186.776 338.805 187.475C339.304 188.192 339.832 188.823 340.417 189.503L339.554 189.635C339.654 188.573 340.018 187.592 340.711 186.791C341.378 185.992 342.246 185.333 343.208 184.961C344.171 184.563 345.198 184.523 346.168 184.557C346.653 184.6 347.132 184.689 347.598 184.796C348.06 184.937 348.512 185.102 348.945 185.312L348.923 185.511C348.457 185.659 348.01 185.764 347.573 185.844C347.138 185.966 346.715 186.067 346.302 186.16C345.49 186.409 344.708 186.625 344.011 186.951C343.309 187.256 342.618 187.573 342.032 188.071C341.475 188.56 340.848 189.152 340.469 189.832L339.91 190.835L339.605 189.964C339.341 189.209 338.892 188.476 338.279 187.95C337.667 187.426 336.833 187.123 336.287 187.057C336.149 187.025 336.038 187.04 335.933 187.024C335.775 187.031 335.597 187.022 335.423 187.04C335.071 187.059 334.705 187.103 334.326 187.158C333.562 187.262 332.774 187.441 331.889 187.56L331.776 187.393Z" fill="#263238"/>
<path d="M594.469 139.853C591.828 127.986 578.149 119.141 566.225 120.836C563.253 121.258 560.362 122.37 558.13 124.424C555.086 127.225 555.808 130.405 554.3 133.876C553.882 134.839 553.066 135.695 552.029 135.873C549.064 136.381 546.675 133.426 543.672 133.404C541.427 133.388 538.557 134.628 537.305 136.566C536.139 138.371 536.952 141.521 534.853 142.72C532.506 144.06 529.652 141.511 527.115 142.433C523.962 143.579 525.395 145.872 524.249 147.305C523.103 148.738 520.81 148.165 517.657 147.878C514.504 147.592 511.925 151.317 511.925 151.317H611.379C611.379 151.317 612.239 149.884 608.513 144.152C604.787 138.42 599.628 142.432 597.335 142.432C595.044 142.433 594.47 139.857 594.469 139.853Z" stroke="#263238" stroke-miterlimit="10"/>
<path d="M637.371 210.622C635.983 204.387 628.796 199.74 622.532 200.63C620.971 200.852 619.452 201.436 618.279 202.515C616.679 203.987 617.059 205.657 616.267 207.481C616.047 207.987 615.619 208.437 615.074 208.53C613.516 208.797 612.261 207.244 610.683 207.233C609.503 207.224 607.995 207.876 607.338 208.894C606.725 209.842 607.152 211.498 606.05 212.127C604.817 212.831 603.317 211.492 601.984 211.976C600.328 212.578 601.081 213.783 600.478 214.536C599.876 215.289 598.671 214.988 597.014 214.837C595.358 214.686 594.002 216.644 594.002 216.644H646.256C646.256 216.644 646.708 215.891 644.75 212.879C642.792 209.867 640.082 211.975 638.877 211.975C637.674 211.977 637.372 210.624 637.371 210.622Z" stroke="#263238" stroke-miterlimit="10"/>
<path d="M243.679 221.185C238.915 203.283 214.242 189.941 192.736 192.497C187.376 193.134 182.161 194.812 178.134 197.91C172.643 202.136 173.945 206.932 171.226 212.168C170.471 213.621 169 214.912 167.13 215.181C161.782 215.948 157.472 211.489 152.057 211.456C148.008 211.431 142.831 213.302 140.573 216.226C138.47 218.949 139.936 223.701 136.151 225.509C131.918 227.531 126.77 223.685 122.193 225.077C116.506 226.807 119.091 230.266 117.023 232.427C114.955 234.589 110.819 233.724 105.133 233.292C99.446 232.86 94.7939 238.48 94.7939 238.48H274.18C274.18 238.48 275.731 236.318 269.01 227.671C262.29 219.024 252.984 225.077 248.848 225.077C244.716 225.077 243.681 221.192 243.679 221.185Z" stroke="#263238" stroke-miterlimit="10"/>
<path d="M290.577 343.309H245.057V355.507H290.577V343.309Z" fill="white" stroke="#263238" stroke-miterlimit="10"/>
<path d="M290.577 343.309H259.333V355.507H290.577V343.309Z" fill="white" stroke="#263238" stroke-miterlimit="10"/>
<path d="M290.577 331.409H245.057V343.607H290.577V331.409Z" fill="white" stroke="#263238" stroke-miterlimit="10"/>
<path d="M290.577 331.409H259.333V343.607H290.577V331.409Z" fill="white" stroke="#263238" stroke-miterlimit="10"/>
<path d="M290.577 319.508H245.057V331.706H290.577V319.508Z" fill="white" stroke="#263238" stroke-miterlimit="10"/>
<path d="M290.577 319.508H259.333V331.706H290.577V319.508Z" fill="white" stroke="#263238" stroke-miterlimit="10"/>
<path d="M307.535 343.309H262.015V355.507H307.535V343.309Z" fill="white" stroke="#263238" stroke-miterlimit="10"/>
<path d="M307.535 343.309H276.291V355.507H307.535V343.309Z" fill="white" stroke="#263238" stroke-miterlimit="10"/>
<path d="M307.535 331.409H262.015V343.607H307.535V331.409Z" fill="white" stroke="#263238" stroke-miterlimit="10"/>
<path d="M307.535 331.409H276.291V343.607H307.535V331.409Z" fill="white" stroke="#263238" stroke-miterlimit="10"/>
<path d="M307.535 319.508H262.015V331.706H307.535V319.508Z" fill="white" stroke="#263238" stroke-miterlimit="10"/>
<path d="M307.535 319.508H276.291V331.706H307.535V319.508Z" fill="white" stroke="#263238" stroke-miterlimit="10"/>
<path d="M324.494 343.309H278.974V355.507H324.494V343.309Z" fill="#8C8C8C" stroke="#263238" stroke-miterlimit="10"/>
<path d="M324.494 343.309H293.25V355.507H324.494V343.309Z" fill="#8C8C8C" stroke="#263238" stroke-miterlimit="10"/>
<path d="M324.494 331.409H278.974V343.607H324.494V331.409Z" fill="white" stroke="#263238" stroke-miterlimit="10"/>
<path d="M324.494 331.409H293.25V343.607H324.494V331.409Z" fill="white" stroke="#263238" stroke-miterlimit="10"/>
<path d="M324.494 319.508H278.974V331.706H324.494V319.508Z" fill="#4E6EFE" stroke="#263238" stroke-miterlimit="10"/>
<path d="M324.494 319.508H293.25V331.706H324.494V319.508Z" fill="#4E6EFE" stroke="#263238" stroke-miterlimit="10"/>
<path d="M263.499 278.148H261.776V298.488H263.499V278.148Z" fill="white" stroke="#263238" stroke-miterlimit="10"/>
<path d="M265.03 292.173H260.245V301.168H265.03V292.173Z" fill="white" stroke="#263238" stroke-miterlimit="10"/>
<path d="M230.831 310.95L244.341 312.803V305.469H230.831V310.95Z" fill="white" stroke="#263238" stroke-miterlimit="10"/>
<path d="M284.168 300.211H244.341V305.469H284.168V300.211Z" fill="white" stroke="#263238" stroke-miterlimit="10"/>
<path d="M284.168 300.211H275.445V305.469H284.168V300.211Z" fill="white" stroke="#263238" stroke-miterlimit="10"/>
<path d="M281.564 305.469H240.264V357.577H281.564V305.469Z" fill="white" stroke="#263238" stroke-miterlimit="10"/>
<path d="M287.696 305.469H277.318V357.577H287.696V305.469Z" fill="white" stroke="#263238" stroke-miterlimit="10"/>
<path d="M295.073 310.95L281.564 312.803V305.469H295.073V310.95Z" fill="white" stroke="#263238" stroke-miterlimit="10"/>
<path d="M298.423 305.469H295.073V311.155H298.423V305.469Z" fill="white" stroke="#263238" stroke-miterlimit="10"/>
<path d="M298.424 311.155L288.54 313.009H281.564L295.073 311.155H298.424Z" fill="white" stroke="#263238" stroke-miterlimit="10"/>
<path d="M244.34 309.397H242.255V312.803H244.34V309.397Z" fill="#263238"/>
<path d="M247.806 309.397H245.72V312.803H247.806V309.397Z" fill="#263238"/>
<path d="M256.675 309.397H254.59V312.803H256.675V309.397Z" fill="#263238"/>
<path d="M260.14 309.397H258.054V312.803H260.14V309.397Z" fill="#263238"/>
<path d="M269.009 309.397H266.924V312.803H269.009V309.397Z" fill="#263238"/>
<path d="M272.473 309.397H270.388V312.803H272.473V309.397Z" fill="#263238"/>
<path d="M244.34 319.923H242.255V323.329H244.34V319.923Z" fill="#263238"/>
<path d="M247.806 319.923H245.72V323.329H247.806V319.923Z" fill="#263238"/>
<path d="M256.675 319.923H254.59V323.329H256.675V319.923Z" fill="#263238"/>
<path d="M260.14 319.923H258.054V323.329H260.14V319.923Z" fill="#263238"/>
<path d="M269.009 319.923H266.924V323.329H269.009V319.923Z" fill="#263238"/>
<path d="M272.473 319.923H270.388V323.329H272.473V319.923Z" fill="#263238"/>
<path d="M244.34 330.449H242.255V333.854H244.34V330.449Z" fill="#263238"/>
<path d="M247.806 330.449H245.72V333.854H247.806V330.449Z" fill="#263238"/>
<path d="M256.675 330.449H254.59V333.854H256.675V330.449Z" fill="#263238"/>
<path d="M260.14 330.449H258.054V333.854H260.14V330.449Z" fill="#263238"/>
<path d="M269.009 330.449H266.924V333.854H269.009V330.449Z" fill="#263238"/>
<path d="M272.473 330.449H270.388V333.854H272.473V330.449Z" fill="#263238"/>
<path d="M244.34 340.975H242.255V344.381H244.34V340.975Z" fill="#263238"/>
<path d="M247.806 340.975H245.72V344.381H247.806V340.975Z" fill="#263238"/>
<path d="M256.675 340.975H254.59V344.381H256.675V340.975Z" fill="#263238"/>
<path d="M260.14 340.975H258.054V344.381H260.14V340.975Z" fill="#263238"/>
<path d="M269.009 340.975H266.924V344.381H269.009V340.975Z" fill="#263238"/>
<path d="M272.473 340.975H270.388V344.381H272.473V340.975Z" fill="#263238"/>
<path d="M250.676 302.125H246.274V304.996H250.676V302.125Z" fill="#263238"/>
<path d="M256.322 302.125H251.92V304.996H256.322V302.125Z" fill="#263238"/>
<path d="M261.968 302.125H257.566V304.996H261.968V302.125Z" fill="#263238"/>
<path d="M267.614 302.125H263.212V304.996H267.614V302.125Z" fill="#263238"/>
<path d="M273.259 302.125H268.857V304.996H273.259V302.125Z" fill="#263238"/>
<path d="M221.766 343.309H176.246V355.507H221.766V343.309Z" fill="white" stroke="#263238" stroke-miterlimit="10"/>
<path d="M221.766 343.309H190.522V355.507H221.766V343.309Z" fill="white" stroke="#263238" stroke-miterlimit="10"/>
<path d="M221.766 331.409H176.246V343.607H221.766V331.409Z" fill="white" stroke="#263238" stroke-miterlimit="10"/>
<path d="M221.766 331.409H190.522V343.607H221.766V331.409Z" fill="white" stroke="#263238" stroke-miterlimit="10"/>
<path d="M221.766 319.508H176.246V331.706H221.766V319.508Z" fill="white" stroke="#263238" stroke-miterlimit="10"/>
<path d="M221.766 319.508H190.522V331.706H221.766V319.508Z" fill="white" stroke="#263238" stroke-miterlimit="10"/>
<path d="M238.724 343.309H193.204V355.507H238.724V343.309Z" fill="white" stroke="#263238" stroke-miterlimit="10"/>
<path d="M238.724 343.309H207.48V355.507H238.724V343.309Z" fill="#8C8C8C" stroke="#263238" stroke-miterlimit="10"/>
<path d="M238.724 331.409H193.204V343.607H238.724V331.409Z" fill="white" stroke="#263238" stroke-miterlimit="10"/>
<path d="M238.724 331.409H207.48V343.607H238.724V331.409Z" fill="white" stroke="#263238" stroke-miterlimit="10"/>
<path d="M238.724 319.508H193.204V331.706H238.724V319.508Z" fill="white" stroke="#263238" stroke-miterlimit="10"/>
<path d="M238.724 319.508H207.48V331.706H238.724V319.508Z" fill="#8C8C8C" stroke="#263238" stroke-miterlimit="10"/>
<path d="M255.683 343.309H210.163V355.507H255.683V343.309Z" fill="white" stroke="#263238" stroke-miterlimit="10"/>
<path d="M255.683 343.309H224.439V355.507H255.683V343.309Z" fill="white" stroke="#263238" stroke-miterlimit="10"/>
<path d="M255.683 331.409H210.163V343.607H255.683V331.409Z" fill="#C2C2C2" stroke="#263238" stroke-miterlimit="10"/>
<path d="M255.683 331.409H224.439V343.607H255.683V331.409Z" fill="#C2C2C2" stroke="#263238" stroke-miterlimit="10"/>
<path d="M255.683 319.508H210.163V331.706H255.683V319.508Z" fill="#8C8C8C" stroke="#263238" stroke-miterlimit="10"/>
<path d="M255.683 319.508H224.439V331.706H255.683V319.508Z" fill="#8C8C8C" stroke="#263238" stroke-miterlimit="10"/>
<path d="M128.338 343.309H82.8184V355.507H128.338V343.309Z" fill="white" stroke="#263238" stroke-miterlimit="10"/>
<path d="M128.339 343.309H97.0947V355.507H128.339V343.309Z" fill="white" stroke="#263238" stroke-miterlimit="10"/>
<path d="M128.338 331.409H82.8184V343.607H128.338V331.409Z" fill="white" stroke="#263238" stroke-miterlimit="10"/>
<path d="M128.339 331.409H97.0947V343.607H128.339V331.409Z" fill="white" stroke="#263238" stroke-miterlimit="10"/>
<path d="M128.338 319.508H82.8184V331.706H128.338V319.508Z" fill="#4E6EFE" stroke="#263238" stroke-miterlimit="10"/>
<path d="M128.339 319.508H97.0947V331.706H128.339V319.508Z" fill="#4E6EFE" stroke="#263238" stroke-miterlimit="10"/>
<path d="M167.724 343.309H122.204V355.507H167.724V343.309Z" fill="white" stroke="#263238" stroke-miterlimit="10"/>
<path d="M167.724 343.309H136.48V355.507H167.724V343.309Z" fill="white" stroke="#263238" stroke-miterlimit="10"/>
<path d="M167.724 331.409H122.204V343.607H167.724V331.409Z" fill="white" stroke="#263238" stroke-miterlimit="10"/>
<path d="M167.724 331.409H136.48V343.607H167.724V331.409Z" fill="white" stroke="#263238" stroke-miterlimit="10"/>
<path d="M167.724 319.508H122.204V331.706H167.724V319.508Z" fill="white" stroke="#263238" stroke-miterlimit="10"/>
<path d="M167.724 319.508H136.48V331.706H167.724V319.508Z" fill="white" stroke="#263238" stroke-miterlimit="10"/>
<path d="M184.683 343.309H139.163V355.507H184.683V343.309Z" fill="white" stroke="#263238" stroke-miterlimit="10"/>
<path d="M184.683 343.309H153.439V355.507H184.683V343.309Z" fill="white" stroke="#263238" stroke-miterlimit="10"/>
<path d="M184.683 331.409H139.163V343.607H184.683V331.409Z" fill="white" stroke="#263238" stroke-miterlimit="10"/>
<path d="M184.683 331.409H153.439V343.607H184.683V331.409Z" fill="white" stroke="#263238" stroke-miterlimit="10"/>
<path d="M184.683 319.508H139.163V331.706H184.683V319.508Z" fill="white" stroke="#263238" stroke-miterlimit="10"/>
<path d="M184.683 319.508H153.439V331.706H184.683V319.508Z" fill="white" stroke="#263238" stroke-miterlimit="10"/>
<path d="M201.641 343.309H156.121V355.507H201.641V343.309Z" fill="#4E6EFE" stroke="#263238" stroke-miterlimit="10"/>
<path d="M201.641 343.309H170.397V355.507H201.641V343.309Z" fill="#4E6EFE" stroke="#263238" stroke-miterlimit="10"/>
<path d="M201.641 331.409H156.121V343.607H201.641V331.409Z" fill="white" stroke="#263238" stroke-miterlimit="10"/>
<path d="M201.641 331.409H170.397V343.607H201.641V331.409Z" fill="white" stroke="#263238" stroke-miterlimit="10"/>
<path d="M201.641 319.508H156.121V331.706H201.641V319.508Z" fill="#4E6EFE" stroke="#263238" stroke-miterlimit="10"/>
<path d="M201.641 319.508H170.397V331.706H201.641V319.508Z" fill="#4E6EFE" stroke="#263238" stroke-miterlimit="10"/>
<path d="M145.297 343.309H99.7773V355.507H145.297V343.309Z" fill="white" stroke="#263238" stroke-miterlimit="10"/>
<path d="M145.298 343.309H114.054V355.507H145.298V343.309Z" fill="white" stroke="#263238" stroke-miterlimit="10"/>
<path d="M145.297 331.409H99.7773V343.607H145.297V331.409Z" fill="white" stroke="#263238" stroke-miterlimit="10"/>
<path d="M145.298 331.409H114.054V343.607H145.298V331.409Z" fill="white" stroke="#263238" stroke-miterlimit="10"/>
<path d="M145.297 319.508H99.7773V331.706H145.297V319.508Z" fill="#4E6EFE" stroke="#263238" stroke-miterlimit="10"/>
<path d="M145.298 319.508H114.054V331.706H145.298V319.508Z" fill="#4E6EFE" stroke="#263238" stroke-miterlimit="10"/>
<path d="M162.255 343.309H116.735V355.507H162.255V343.309Z" fill="white" stroke="#263238" stroke-miterlimit="10"/>
<path d="M162.256 343.309H131.012V355.507H162.256V343.309Z" fill="white" stroke="#263238" stroke-miterlimit="10"/>
<path d="M162.255 331.409H116.735V343.607H162.255V331.409Z" fill="white" stroke="#263238" stroke-miterlimit="10"/>
<path d="M162.256 331.409H131.012V343.607H162.256V331.409Z" fill="#C2C2C2" stroke="#263238" stroke-miterlimit="10"/>
<path d="M162.255 319.508H116.735V331.706H162.255V319.508Z" fill="white" stroke="#263238" stroke-miterlimit="10"/>
<path d="M162.256 319.508H131.012V331.706H162.256V319.508Z" fill="white" stroke="#263238" stroke-miterlimit="10"/>
<path d="M139.645 346.284V333.193C139.645 333.193 141.133 332.3 142.025 334.978C142.918 337.656 146.634 349.408 146.634 349.408L139.645 346.284Z" fill="white" stroke="#263238" stroke-miterlimit="10"/>
<path d="M139.645 333.207H79.8438V345.392H139.645V333.207Z" fill="white" stroke="#263238" stroke-miterlimit="10"/>
<path d="M330.443 354.135H156.081L146.483 345.337H72.8994L93.2954 375.73C93.2954 375.73 94.8954 380.529 90.0964 381.729C88.3594 382.163 86.6214 382.493 85.1124 382.737C82.4574 383.165 80.4984 385.439 80.4984 388.128H299.413C299.413 388.128 326.044 384.928 330.443 354.135Z" fill="#263238" stroke="#263238" stroke-miterlimit="10"/>
<path d="M92.5901 380.315C92.0651 380.92 91.2751 381.434 90.0951 381.729C88.3581 382.163 86.6201 382.493 85.1111 382.737C82.4561 383.165 80.4971 385.439 80.4971 388.128H299.412C299.412 388.128 308.207 387.059 316.524 380.315H92.5901Z" fill="white" stroke="#263238" stroke-miterlimit="10"/>
<path d="M463.162 238.48H456.455V377.926H463.162V238.48Z" fill="#263238" stroke="#263238" stroke-miterlimit="10"/>
<path d="M484.092 338.165H432.355V345.83H484.092V338.165Z" fill="#263238" stroke="#263238" stroke-miterlimit="10"/>
<path d="M417.984 238.48H411.277V377.926H417.984V238.48Z" fill="#263238" stroke="#263238" stroke-miterlimit="10"/>
<path d="M448.872 238.48H442.165V377.926H448.872V238.48Z" fill="#263238" stroke="#263238" stroke-miterlimit="10"/>
<path d="M701.892 377.885H256.185V388.128H701.892V377.885Z" fill="#C2C2C2" stroke="#263238" stroke-miterlimit="10"/>
<path d="M701.894 377.885H423.852V388.128H701.894V377.885Z" fill="#263238" stroke="#263238" stroke-miterlimit="10"/>
<path d="M363.373 222.672H330.798V234.648H363.373V222.672Z" fill="white" stroke="#263238" stroke-miterlimit="10"/>
<path d="M363.373 222.672H349.002V234.648H363.373V222.672Z" fill="white" stroke="#263238" stroke-miterlimit="10"/>
<path d="M412.715 222.672H380.14V234.648H412.715V222.672Z" fill="white" stroke="#263238" stroke-miterlimit="10"/>
<path d="M412.715 222.672H398.344V234.648H412.715V222.672Z" fill="white" stroke="#263238" stroke-miterlimit="10"/>
<path d="M440.978 338.165H389.241V345.83H440.978V338.165Z" fill="#2E3F8A" stroke="#263238" stroke-miterlimit="10"/>
<path d="M392.115 238.48H385.408V377.926H392.115V238.48Z" fill="#2E3F8A" stroke="#263238" stroke-miterlimit="10"/>
<path d="M422.296 238.48H415.589V377.926H422.296V238.48Z" fill="#2E3F8A" stroke="#263238" stroke-miterlimit="10"/>
<path d="M443.853 238.48H437.146V377.926H443.853V238.48Z" fill="#2E3F8A" stroke="#263238" stroke-miterlimit="10"/>
<path d="M466.367 238.48H459.66V377.926H466.367V238.48Z" fill="#2E3F8A" stroke="#263238" stroke-miterlimit="10"/>
<path d="M487.925 238.48H481.218V377.926H487.925V238.48Z" fill="#263238" stroke="#263238" stroke-miterlimit="10"/>
<path d="M426.192 175.511H421.686V236.899H426.192V175.511Z" fill="#2E3F8A" stroke="#263238" stroke-miterlimit="10"/>
<path d="M300.617 235.606L424.451 175.725L406.007 238.48" stroke="#263238" stroke-width="2" stroke-miterlimit="10"/>
<path d="M570.799 234.648H313.552V238.48H570.799V234.648Z" fill="#2E3F8A" stroke="#263238" stroke-miterlimit="10"/>
<path d="M570.8 234.648H560.261V238.48H570.8V234.648Z" fill="#263238" stroke="#263238" stroke-miterlimit="10"/>
<path d="M539.182 235.606L424.451 175.725L433.792 238.48" stroke="#263238" stroke-width="2" stroke-miterlimit="10"/>
<path d="M552.596 234.648H295.349V238.48H552.596V234.648Z" fill="#2E3F8A" stroke="#263238" stroke-miterlimit="10"/>
<path d="M552.596 234.648H542.057V238.48H552.596V234.648Z" fill="#263238" stroke="#263238" stroke-miterlimit="10"/>
<path d="M433.554 171.414H415.35V179.558H433.554V171.414Z" fill="#2E3F8A" stroke="#263238" stroke-miterlimit="10"/>
<path d="M441.697 169.018H406.248V171.413H441.697V169.018Z" fill="#2E3F8A" stroke="#263238" stroke-miterlimit="10"/>
<path d="M381.964 365.448H336.444V377.646H381.964V365.448Z" fill="white" stroke="#263238" stroke-miterlimit="10"/>
<path d="M381.965 365.448H350.721V377.646H381.965V365.448Z" fill="white" stroke="#263238" stroke-miterlimit="10"/>
<path d="M381.964 353.548H336.444V365.746H381.964V353.548Z" fill="#C2C2C2" stroke="#263238" stroke-miterlimit="10"/>
<path d="M381.965 353.548H350.721V365.746H381.965V353.548Z" fill="#C2C2C2" stroke="#263238" stroke-miterlimit="10"/>
<path d="M381.964 341.647H336.444V353.845H381.964V341.647Z" fill="white" stroke="#263238" stroke-miterlimit="10"/>
<path d="M381.965 341.647H350.721V353.845H381.965V341.647Z" fill="white" stroke="#263238" stroke-miterlimit="10"/>
<path d="M398.922 365.448H353.402V377.646H398.922V365.448Z" fill="#2E3F8A" stroke="#263238" stroke-miterlimit="10"/>
<path d="M398.923 365.448H367.679V377.646H398.923V365.448Z" fill="#2E3F8A" stroke="#263238" stroke-miterlimit="10"/>
<path d="M398.922 353.548H353.402V365.746H398.922V353.548Z" fill="white" stroke="#263238" stroke-miterlimit="10"/>
<path d="M398.923 353.548H367.679V365.746H398.923V353.548Z" fill="white" stroke="#263238" stroke-miterlimit="10"/>
<path d="M398.922 341.647H353.402V353.845H398.922V341.647Z" fill="#8C8C8C" stroke="#263238" stroke-miterlimit="10"/>
<path d="M398.923 341.647H367.679V353.845H398.923V341.647Z" fill="#8C8C8C" stroke="#263238" stroke-miterlimit="10"/>
<path d="M415.881 365.448H370.361V377.646H415.881V365.448Z" fill="#C2C2C2" stroke="#263238" stroke-miterlimit="10"/>
<path d="M415.882 365.448H384.638V377.646H415.882V365.448Z" fill="#C2C2C2" stroke="#263238" stroke-miterlimit="10"/>
<path d="M415.881 353.548H370.361V365.746H415.881V353.548Z" fill="#2E3F8A" stroke="#263238" stroke-miterlimit="10"/>
<path d="M415.882 353.548H384.638V365.746H415.882V353.548Z" fill="#2E3F8A" stroke="#263238" stroke-miterlimit="10"/>
<path d="M415.881 341.647H370.361V353.845H415.881V341.647Z" fill="white" stroke="#263238" stroke-miterlimit="10"/>
<path d="M415.882 341.647H384.638V353.845H415.882V341.647Z" fill="white" stroke="#263238" stroke-miterlimit="10"/>
<path d="M337.505 238.48H309.72V243.749H337.505V238.48Z" fill="#2E3F8A" stroke="#263238" stroke-miterlimit="10"/>
<path d="M369.122 238.48H341.337V243.749H369.122V238.48Z" fill="#2E3F8A" stroke="#263238" stroke-miterlimit="10"/>
<path d="M532.956 238.48H505.171V243.749H532.956V238.48Z" fill="#2E3F8A" stroke="#263238" stroke-miterlimit="10"/>
<path d="M564.572 238.48H536.787V243.749H564.572V238.48Z" fill="#2E3F8A" stroke="#263238" stroke-miterlimit="10"/>
<path d="M570.498 319.154H519.368V374.446H570.498V319.154Z" fill="white" stroke="#263238" stroke-miterlimit="10"/>
<path d="M570.498 322.592H519.368V377.884H570.498V322.592Z" fill="white" stroke="#263238" stroke-miterlimit="10"/>
<path d="M528.286 377.289V323.186" stroke="#263238" stroke-miterlimit="10"/>
<path d="M534.232 377.289V323.186" stroke="#263238" stroke-miterlimit="10"/>
<path d="M527.971 326.525H533.663" stroke="#263238" stroke-miterlimit="10"/>
<path d="M527.971 331.363H533.663" stroke="#263238" stroke-miterlimit="10"/>
<path d="M527.971 336.2H533.663" stroke="#263238" stroke-miterlimit="10"/>
<path d="M527.971 341.038H533.663" stroke="#263238" stroke-miterlimit="10"/>
<path d="M527.971 345.875H533.663" stroke="#263238" stroke-miterlimit="10"/>
<path d="M527.971 350.713H533.663" stroke="#263238" stroke-miterlimit="10"/>
<path d="M527.971 355.55H533.663" stroke="#263238" stroke-miterlimit="10"/>
<path d="M527.971 360.388H533.663" stroke="#263238" stroke-miterlimit="10"/>
<path d="M527.971 365.226H533.663" stroke="#263238" stroke-miterlimit="10"/>
<path d="M527.971 370.063H533.663" stroke="#263238" stroke-miterlimit="10"/>
<path d="M527.971 374.901H533.663" stroke="#263238" stroke-miterlimit="10"/>
<path d="M676.836 334.743H553.075V378.289H676.836V334.743Z" fill="#2E3F8A" stroke="#263238" stroke-miterlimit="10"/>
<path d="M676.836 334.743H652.106V378.289H676.836V334.743Z" fill="#2E3F8A" stroke="#263238" stroke-miterlimit="10"/>
<path d="M680.846 326.56H549.064V351.932H680.846V326.56Z" fill="#C2C2C2" stroke="#263238" stroke-miterlimit="10"/>
<path d="M680.848 326.56H652.214V351.932H680.848V326.56Z" fill="#263238" stroke="#263238" stroke-miterlimit="10"/>
<path d="M569.692 356.516H559.379V366.829H569.692V356.516Z" fill="#263238" stroke="#263238" stroke-miterlimit="10"/>
<path d="M630.999 356.516H620.686V366.829H630.999V356.516Z" fill="#263238" stroke="#263238" stroke-miterlimit="10"/>
<path d="M598.913 356.516H588.6V378.289H598.913V356.516Z" fill="#263238" stroke="#263238" stroke-miterlimit="10"/>
</svg>
