<svg width="1920" height="1080" viewBox="0 0 1920 1080" fill="none" xmlns="http://www.w3.org/2000/svg">
<g clip-path="url(#clip0_198_2130)">
<rect width="1920" height="1080" fill="#121939"/>
<path d="M497.972 1075.24C445.733 1054.5 349.777 1036.91 253.058 1064.93C156.339 1092.94 75.195 1112.33 -24.2184 1079.05" stroke="#DADADA" stroke-width="2.5"/>
<path d="M501.095 1020.71C448.824 1000.54 352.845 983.366 256.181 1010.42C159.517 1037.48 78.4115 1056.18 -21.0529 1023.79" stroke="#DADADA" stroke-width="2.5"/>
<path d="M504.284 965.034C452.013 944.869 356.033 927.693 259.369 954.748C162.705 981.803 81.6 1000.51 -17.8644 968.115" stroke="#DADADA" stroke-width="2.5"/>
<path d="M507.439 909.957C455.2 889.226 359.245 871.632 262.526 899.648C165.807 927.664 84.6626 947.053 -14.7509 913.769" stroke="#DADADA" stroke-width="2.5"/>
<path d="M1412.59 280.764C1464.83 301.495 1560.79 319.089 1657.51 291.074C1754.22 263.058 1835.37 243.669 1934.78 276.952" stroke="#DADADA" stroke-width="2.5"/>
<path d="M1409.47 335.293C1461.74 355.459 1557.72 372.634 1654.38 345.579C1751.05 318.524 1832.15 299.817 1931.62 332.212" stroke="#DADADA" stroke-width="2.5"/>
<path d="M1406.28 390.966C1458.55 411.131 1554.53 428.307 1651.2 401.252C1747.86 374.197 1828.96 355.49 1928.43 387.885" stroke="#DADADA" stroke-width="2.5"/>
<path d="M1403.13 446.043C1455.36 466.774 1551.32 484.368 1648.04 456.352C1744.76 428.336 1825.9 408.947 1925.32 442.231" stroke="#DADADA" stroke-width="2.5"/>
</g>
<defs>
<clipPath id="clip0_198_2130">
<rect width="1920" height="1080" fill="white"/>
</clipPath>
</defs>
</svg>
